<svg width="93" height="57" viewBox="0 0 93 57" fill="none" xmlns="http://www.w3.org/2000/svg">
<path d="M44.2933 31.7211L34.5605 43.32H40.8399L49.6258 32.82L58.7303 43.32L64.8568 43.2749L54.8062 31.7211H44.2933Z" fill="#F1872D"/>
<path d="M33.6161 27.6515L20.6317 43.286H28.5249L41.6438 27.6515H33.6161Z" fill="#F1872D"/>
<path d="M63.2311 25.2695L69.6394 38.1544H80.2602V30.4094L68.3572 30.4002L65.6214 25.2557L63.2311 25.2695Z" fill="#F1872D"/>
<path d="M47.1163 13.8576L55.6516 23.9579H62.3658L53.8664 13.8576H47.1163Z" fill="#F1872D"/>
<path d="M47.1168 15.4216V25.9254L41.7843 30.4684H54.8092L54.8857 24.7233L47.1168 15.4216Z" fill="#F1872D"/>
<path d="M19.2425 35.1756L12.3938 43.289H18.5424L25.508 35.1756H19.2425Z" fill="#F1872D"/>
<path d="M64.1823 56.3802L68.519 50.0299H70.7067L74.9633 56.3802H75.947L70.9683 49.3068H68.2979L63.3588 56.3802H64.1823Z" fill="#004380"/>
<path d="M19.2329 21.7174L27.688 32.1005L31.1994 28.0954L25.9158 21.6907L19.2329 21.7174Z" fill="#F1872D"/>
<path d="M34.6188 10.6789L43.6063 21.7169L45.5895 21.7215V15.689L41.449 10.6605L34.6188 10.6789Z" fill="#F1872D"/>
<path d="M77.2582 54.1342C77.2582 55.34 78.1821 56.3846 79.4063 56.3846H85.8911C87.0351 56.3846 88.1 55.5804 88.1 54.3949V49.3111H87.1761V54.3544C87.1761 55.0176 86.6943 55.5997 86.0118 55.5997H79.4063C78.7034 55.5997 78.1618 54.9973 78.1618 54.2936V49.3102H77.2582V54.1324V54.1342Z" fill="#004380"/>
<path d="M62.1955 54.1793C62.1955 53.5769 62.015 53.3954 61.874 53.3356L61.7331 53.2757L61.9136 53.155C62.2351 52.934 62.1946 52.3914 62.1946 52.3315V51.1856C62.1946 50.1613 61.3508 49.3176 60.3274 49.3176H51.5131V56.3698L52.4167 56.3495V50.06H60.1064C60.7484 50.06 61.3112 50.562 61.3112 51.2252V52.3711C61.3112 52.6926 61.1509 53.0942 60.9695 53.1946L60.8295 53.2748L60.9501 53.3752C61.1307 53.5364 61.2716 53.7169 61.2716 54.1784V56.3486H62.1955V54.1784V54.1793Z" fill="#004380"/>
<path d="M38.6088 49.3129L38.629 56.3661H47.0215C48.0854 56.3661 49.13 55.643 49.13 54.5173V51.1616C49.13 50.0166 48.0661 49.3129 46.9819 49.3129H38.6097H38.6088Z" fill="#004380"/>
<path d="M36.2328 56.3783V55.6147H26.6364V50.0695H36.2328V49.3261H25.8331V56.3783H36.2328Z" fill="#004380"/>
<path d="M1.28205 54.3859C1.30231 54.0239 1.28205 51.1905 1.28205 51.1306C1.34192 50.4876 1.54273 50.0455 2.50716 50.0455H10.779V49.3021H2.52743C1.46351 49.3021 0.459473 50.0455 0.459473 51.1508V54.3859C0.459473 55.471 1.36311 56.3553 2.44729 56.3553H10.7799V55.6119H2.44729C1.76473 55.5917 1.28297 55.0298 1.28297 54.3868L1.28205 54.3859Z" fill="#004380"/>
<path d="M73.5376 56.3802H74.5407L73.1756 54.4504H65.9677L64.6431 56.36H65.6867L66.3693 55.1947H72.7343L73.5376 56.3802Z" fill="#004380"/>
<path d="M38.3081 0C35.7114 0 33.5992 2.11217 33.5992 4.70978C33.5992 7.30739 35.7114 9.41864 38.3081 9.41864C40.9048 9.41864 43.0179 7.30647 43.0179 4.70978C43.0179 2.11309 40.9057 0 38.3081 0Z" fill="#F1872D"/>
<path d="M27.09 52.6236H36.2452V51.7798H27.8729V51.1967H36.2452V50.4736H27.09V52.6236Z" fill="#004380"/>
<path d="M27.0509 53.0658V55.1761L36.2457 55.1964V54.4125L27.8735 54.4327V53.7695H36.2457V53.0658H27.0509Z" fill="#004380"/>
<path d="M1.74377 54.3653C1.76404 54.7872 2.02472 55.1888 2.42634 55.2091H10.7783V54.4252H2.46595V51.1901H10.7783V50.467H2.4466C2.00446 50.467 1.74377 50.7286 1.74377 51.1901V54.3653Z" fill="#004380"/>
<path d="M46.9805 50.0637C47.6225 50.0637 48.2655 50.4856 48.2655 51.1691V54.4041C48.2655 55.107 47.6631 55.6302 46.9805 55.6302H39.452V50.0646H46.9805V50.0637Z" fill="white"/>
<path d="M85.8907 54.4355H79.3451V49.3122H78.5621V54.3757C78.5621 54.8178 78.8836 55.2194 79.3451 55.2194H85.8907C86.3522 55.2194 86.7538 54.8574 86.7538 54.3959V49.3122H85.8907V54.4355Z" fill="#004380"/>
<path d="M52.7881 56.3626H53.712V54.1924H59.996V56.3828H60.9402V54.1721C60.9402 53.6701 60.4787 53.449 59.996 53.449H52.7881V56.3626Z" fill="#004380"/>
<path d="M60.0277 53.1202C60.4892 53.1202 60.9313 52.819 60.9313 52.3363V51.3719C60.9313 50.8901 60.55 50.4876 60.0682 50.4876H52.8004V53.1202H60.0277Z" fill="#004380"/>
<path d="M34.2844 12.0087L34.2936 26.3526H42.3306V21.8179L34.2844 12.0087Z" fill="#F1872D"/>
<path d="M47.0171 50.4856H39.869V55.2276H46.9968C47.4389 55.2276 47.8599 54.9061 47.8599 54.4437V51.1681C47.8599 50.726 47.4187 50.4846 47.0171 50.4846V50.4856Z" fill="#004380"/>
<path d="M50.8619 4.85632C48.6908 4.85632 46.9241 6.62307 46.9241 8.79419C46.9241 10.9653 48.6908 12.7321 50.8619 12.7321C53.0331 12.7321 54.7998 10.9653 54.7998 8.79419C54.7998 6.62307 53.0331 4.85632 50.8619 4.85632Z" fill="#F1872D"/>
<path d="M14.3976 52.6523H22.3083V49.3168L21.5456 49.3371V51.768H15.1612V49.3371H14.3976V52.6523Z" fill="#004380"/>
<path d="M14.3976 53.0538V56.3892H15.1612V53.7575H21.5456V56.4095L22.3083 56.3892V53.0538H14.3976Z" fill="#004380"/>
<path d="M19.3455 23.5551L19.3676 33.8571L26.4898 33.8304L27.0775 33.1082L19.3455 23.5551Z" fill="#F1872D"/>
<path d="M23.1856 13.56C21.2401 13.56 19.6558 15.1444 19.6558 17.0898C19.6558 19.0352 21.2401 20.6196 23.1856 20.6196C25.131 20.6196 26.7154 19.0352 26.7154 17.0898C26.7154 15.1444 25.1319 13.56 23.1856 13.56Z" fill="#F1872D"/>
<path d="M70.546 50.4717H68.7194L66.3097 53.9886H72.8949L70.546 50.4717Z" fill="#004380"/>
<path d="M46.9832 51.2014H40.7388V54.4365H46.9832V51.2014Z" fill="white"/>
<path d="M53.7162 51.1985H60.0205L60.0002 52.384H53.7162V51.1985Z" fill="white"/>
<path d="M70.4879 21.5794C68.7792 21.5794 67.3938 22.9657 67.3938 24.6744C67.3938 26.3831 68.7801 27.7695 70.4879 27.7695C72.1957 27.7695 73.5829 26.3841 73.5829 24.6744C73.5829 22.9648 72.1966 21.5794 70.4879 21.5794Z" fill="#F1872D"/>
<path d="M71.4403 53.119H67.8672L69.0508 51.1699H70.1958L71.4403 53.119Z" fill="white"/>
<path d="M78.5744 39.0058C77.6505 39.0058 76.897 39.7593 76.897 40.6832C76.897 41.6071 77.6505 42.3606 78.5744 42.3606C79.4983 42.3606 80.2518 41.6071 80.2518 40.6832C80.2518 39.7593 79.4983 39.0058 78.5744 39.0058Z" fill="#F1872D"/>
<path d="M71.8302 39.0058C70.9063 39.0058 70.1528 39.7593 70.1528 40.6832C70.1528 41.6071 70.9063 42.3606 71.8302 42.3606C72.7541 42.3606 73.5076 41.6071 73.5076 40.6832C73.5076 39.7593 72.7541 39.0058 71.8302 39.0058Z" fill="#F1872D"/>
<path d="M61.2 25.2669C60.4649 25.2669 59.868 25.8638 59.868 26.5989C59.868 27.3339 60.4649 27.9308 61.2 27.9308C61.9351 27.9308 62.532 27.3339 62.532 26.5989C62.532 25.8638 61.9351 25.2669 61.2 25.2669Z" fill="#F1872D"/>
<path d="M92.3411 49.3168H91.4973V56.37H92.3411V49.3168Z" fill="#004380"/>
<path d="M90.9746 56.3688V49.2963H90.0922L90.1115 56.3688H90.9746Z" fill="#004380"/>
<path d="M14.036 56.4094V49.3369H13.2733V56.3891L14.036 56.4094Z" fill="#004380"/>
<path d="M23.473 49.3168H22.7701V56.3497H23.473V49.3168Z" fill="#004380"/>
</svg>
