<svg width="20" height="22" viewBox="0 0 20 22" fill="none" xmlns="http://www.w3.org/2000/svg">
<path d="M7.43901 8.89808V8.0336C7.14926 7.99391 6.85553 7.9693 6.55546 7.9693C2.94035 7.9693 0 10.9105 0 14.5248C0 16.7427 1.10819 18.7051 2.79906 19.8927C1.70833 18.721 1.05976 17.1524 1.05976 15.429C1.05976 11.8662 3.89613 8.98064 7.43901 8.89808Z" fill="white"/>
<path d="M7.5943 18.4447C9.20736 18.4447 10.5458 17.1404 10.6053 15.5416L10.6101 1.28914L13.1956 1.26691C13.1416 0.973984 13.1114 0.671533 13.1114 0.362732H9.54952L9.54395 14.6366C9.48442 16.2354 8.16823 17.5183 6.55596 17.5183C6.05505 17.5183 5.58272 17.3928 5.16754 17.1745C5.71211 17.9287 6.59565 18.4439 7.5943 18.4439V18.4447Z" fill="white"/>
<path d="M15.3672 4.51637C14.6091 3.64554 14.1487 2.50956 14.1487 1.26721H13.1945C13.4462 2.62467 14.2511 3.78843 15.3672 4.51637Z" fill="white"/>
<path d="M6.55531 11.5302C4.90414 11.5302 3.56097 12.8734 3.56097 14.5245C3.56097 15.674 4.2135 16.6726 5.1661 17.1743C4.81126 16.6822 4.59931 16.0804 4.59931 15.4279C4.59931 13.7767 5.94248 12.4336 7.59365 12.4336C7.90166 12.4336 8.19777 12.4844 8.4772 12.5717V8.93594C8.18745 8.89625 7.89372 8.87164 7.59365 8.87164C7.54205 8.87164 7.49046 8.87402 7.43886 8.87561V11.6683C7.15943 11.581 6.86332 11.5302 6.55531 11.5302Z" fill="white"/>
<path d="M18.0658 6.11298V8.88107C16.2194 8.88107 14.5079 8.29046 13.1107 7.28785V14.526C13.1107 18.1411 10.1696 21.0815 6.55523 21.0815C5.15809 21.0815 3.86336 20.6409 2.79803 19.8931C3.99593 21.1791 5.70187 21.9849 7.59278 21.9849C11.2079 21.9849 14.1483 19.0437 14.1483 15.4294V8.19123C15.5454 9.19384 17.2569 9.78446 19.1034 9.78446V6.22253C18.7469 6.22253 18.4 6.18363 18.065 6.11218L18.0658 6.11298Z" fill="white"/>
<path d="M13.1108 14.525V7.28685C14.508 8.28946 16.2195 8.88007 18.0659 8.88007V6.11198C16.999 5.88335 16.0591 5.311 15.3677 4.51637C14.2516 3.78843 13.4466 2.62467 13.195 1.26721H10.5872L10.5817 15.5411C10.5221 17.1399 9.20596 18.4227 7.59369 18.4227C6.59505 18.4227 5.71071 17.929 5.16693 17.1748C4.21433 16.6731 3.56181 15.6745 3.56181 14.525C3.56181 12.8738 4.90497 11.5307 6.55614 11.5307C6.86415 11.5307 7.16026 11.5815 7.43969 11.6688V8.8761C3.89602 8.95866 1.039 11.8649 1.039 15.4276C1.039 17.151 1.70822 18.7196 2.79974 19.8913C3.86427 20.6391 5.15979 21.0797 6.55694 21.0797C10.1721 21.0797 13.1124 18.1386 13.1124 14.5242L13.1108 14.525Z" fill="white"/>
</svg>
