<svg width="82" height="62" viewBox="0 0 82 62" fill="none" xmlns="http://www.w3.org/2000/svg">
<path d="M10.9962 32.9737C10.9962 41.8298 13.8966 44.2515 17.4728 44.2515C19.2187 44.2515 20.8097 43.0406 21.9783 41.0695V24.8497C20.8097 22.8785 19.2187 21.6677 17.4728 21.6677C13.8966 21.6677 10.9962 24.2583 10.9962 32.9455V32.9737ZM33.2421 28.5245L45.6462 14.0224H55.1922V1.2522H66.1603V14.0084H72.1301V22.3435H66.1603V38.5774C66.1603 38.5774 66.1603 38.8449 66.1603 39.2109C66.1603 41.6467 66.7094 44.3218 72.3272 42.6605V51.0238C72.3272 51.0238 65.8787 52.0938 62.753 51.6433C59.6273 51.1927 55.1782 49.0667 55.1782 44.1811V22.3576H49.7716L46.1249 26.8208L56.572 50.7985H43.5484L37.297 36.1557L33.228 40.1543V50.8266H21.9783V47.7714C19.6552 50.5169 16.6562 52.1783 13.3897 52.1783C5.99793 52.1783 0 43.7164 0 33.2975C0 22.8785 5.99793 14.4026 13.3897 14.4026C16.6562 14.4026 19.6552 16.0499 21.9783 18.8095V1.2522H33.228V28.5104L33.2421 28.5245Z" fill="white"/>
<path fill-rule="evenodd" clip-rule="evenodd" d="M73.9889 2.23866C73.1864 3.09752 72.7921 4.12534 72.7921 5.30803C72.7921 6.49072 73.2004 7.57485 74.0171 8.43371C74.8337 9.29257 75.8052 9.71496 76.9597 9.71496C78.1142 9.71496 79.0857 9.27849 79.8883 8.41963C80.6908 7.54669 81.0991 6.51888 81.0991 5.29395C81.0991 4.06902 80.6908 3.09752 79.8883 2.22458C79.0717 1.33757 78.1002 0.901098 76.9456 0.901098C75.7911 0.901098 74.8055 1.33757 73.9889 2.22458V2.23866ZM80.4655 9.10953C79.48 10.1092 78.3114 10.602 76.9456 10.602C75.5799 10.602 74.3409 10.0951 73.3694 9.0673C72.3979 8.05356 71.9192 6.78639 71.9192 5.29395C71.9192 3.80151 72.4401 2.46394 73.4961 1.43612C74.4817 0.478708 75.6362 0 76.9597 0C78.3536 0 79.5363 0.520947 80.5219 1.54876C81.5074 2.59066 82.0002 3.82966 82.0002 5.29395C82.0002 6.75823 81.4933 8.06764 80.4937 9.09545L80.4655 9.10953ZM77.3962 3.53399C77.1991 3.44951 76.9175 3.40728 76.5514 3.40728H76.1994V5.11091H76.7626C77.1005 5.11091 77.368 5.04051 77.5651 4.89972C77.7622 4.75892 77.8467 4.51957 77.8467 4.19574C77.8467 3.8719 77.6918 3.64663 77.3962 3.53399ZM74.7351 8.25068V2.39354C75.0871 2.39354 75.594 2.39354 76.2839 2.39354C76.9738 2.39354 77.3539 2.39354 77.4384 2.39354C77.8749 2.4217 78.2409 2.53434 78.5366 2.68921C79.0294 2.97081 79.2828 3.44951 79.2828 4.09718C79.2828 4.58997 79.1561 4.94196 78.8886 5.16723C78.6352 5.39251 78.3113 5.51922 77.9312 5.56146C78.2832 5.63186 78.5507 5.7445 78.7197 5.89937C79.0435 6.18097 79.2124 6.61744 79.2124 7.20878V7.72973C79.2124 7.72973 79.2124 7.84237 79.2124 7.89868C79.2124 7.955 79.2406 8.01132 79.2547 8.06764L79.2969 8.2366H77.903C77.8608 8.05356 77.8326 7.77197 77.8186 7.41998C77.8186 7.06799 77.7763 6.82863 77.7341 6.70191C77.6637 6.49072 77.5229 6.34992 77.3258 6.26544C77.2131 6.22321 77.0442 6.18097 76.833 6.16689L76.5092 6.13873H76.1994V8.22252H74.7351V8.25068Z" fill="white"/>
<path d="M1.05627 60.9076V53.5017H2.43608V60.9076H1.05627Z" fill="white"/>
<path d="M3.74524 60.9076V53.5017H5.08281L7.87058 58.4437V53.5017H9.15182V60.9076H7.77202L5.02649 56.0783V60.9076H3.74524Z" fill="white"/>
<path d="M12.122 60.9076V54.7548H10.1086V53.5017H15.5152V54.7548H13.5018V60.9076H12.122Z" fill="white"/>
<path d="M16.4033 60.9076V53.5017H21.4438V54.7548H17.769V56.4021H21.1904V57.6552H17.769V59.6686H21.5706V60.9217H16.4033V60.9076Z" fill="white"/>
<path d="M22.7397 60.9076V53.5017H25.626C26.3581 53.5017 26.8791 53.5721 27.217 53.6988C27.5408 53.8255 27.8083 54.0649 28.0055 54.4028C28.2026 54.7407 28.3011 55.1349 28.3011 55.5714C28.3011 56.1205 28.1463 56.5851 27.8506 56.9512C27.5549 57.3173 27.1044 57.5426 26.4989 57.6411C26.7946 57.8242 27.034 58.0354 27.2311 58.2606C27.4282 58.4859 27.6816 58.8801 28.0195 59.4574L28.8502 60.9076H27.2029L26.2033 59.3025C25.8513 58.7253 25.6119 58.3592 25.4852 58.2184C25.3585 58.0635 25.2177 57.965 25.0769 57.9086C24.9361 57.8523 24.6967 57.8242 24.387 57.8242H24.1054V60.9076H22.7256H22.7397ZM24.1195 56.6415H25.1332C25.795 56.6415 26.2033 56.6133 26.3722 56.557C26.5412 56.5007 26.6679 56.388 26.7524 56.2472C26.8509 56.0924 26.8932 55.9093 26.8932 55.6981C26.8932 55.4447 26.8368 55.2476 26.7101 55.0927C26.5834 54.9378 26.4145 54.8393 26.1892 54.797C26.0765 54.783 25.7386 54.7689 25.1895 54.7689H24.1195V56.6415Z" fill="white"/>
<path d="M29.608 60.9076V53.5017H30.9456L33.7334 58.4437V53.5017H35.0146V60.9076H33.6348L30.8893 56.0783V60.9076H29.608Z" fill="white"/>
<path d="M42.591 60.9076H41.0986L40.5073 59.2321H37.7899L37.2267 60.9076H35.7765L38.4235 53.5017H39.8737L42.591 60.9076ZM40.0567 57.979L39.1134 55.2335L38.1982 57.979H40.0567Z" fill="white"/>
<path d="M44.1533 60.9076V54.7548H42.1399V53.5017H47.5465V54.7548H45.5331V60.9076H44.1533Z" fill="white"/>
<path d="M48.3772 60.9076V53.5017H49.757V60.9076H48.3772Z" fill="white"/>
<path d="M50.7858 57.2476C50.7858 56.4873 50.8844 55.8678 51.0956 55.3469C51.2504 54.9667 51.4616 54.6288 51.7291 54.3331C51.9967 54.0375 52.2923 53.8122 52.6021 53.6714C53.0245 53.4743 53.5173 53.3757 54.0664 53.3757C55.066 53.3757 55.8686 53.7136 56.474 54.3895C57.0794 55.0653 57.3751 56.0086 57.3751 57.2054C57.3751 58.4022 57.0794 59.3314 56.474 60.0072C55.8826 60.6831 55.0801 61.021 54.0804 61.021C53.0808 61.021 52.2642 60.6831 51.6728 60.0072C51.0815 59.3314 50.7717 58.4162 50.7717 57.2336L50.7858 57.2476ZM52.2079 57.1913C52.2079 58.0361 52.3909 58.6697 52.7429 59.0921C53.0949 59.5285 53.5454 59.7397 54.0945 59.7397C54.6436 59.7397 55.0942 59.5285 55.4462 59.0921C55.7982 58.6556 55.9671 58.022 55.9671 57.1632C55.9671 56.3043 55.7982 55.6848 55.4602 55.2624C55.1223 54.84 54.6577 54.6429 54.0945 54.6429C53.5313 54.6429 53.0667 54.8541 52.7288 55.2765C52.3768 55.6989 52.2079 56.3325 52.2079 57.1913Z" fill="white"/>
<path d="M58.4716 60.9076V53.5017H59.8091L62.5969 58.4437V53.5017H63.8781V60.9076H62.4983L59.7528 56.0783V60.9076H58.4716Z" fill="white"/>
<path d="M71.4544 60.9076H69.962L69.3707 59.2321H66.6533L66.0901 60.9076H64.6399L67.2869 53.5017H68.7371L71.4544 60.9076ZM68.9201 57.979L67.9768 55.2335L67.0616 57.979H68.9201Z" fill="white"/>
<path d="M72.2145 60.91V53.5745H73.5943V59.6709H77.0156V60.924H72.2286L72.2145 60.91Z" fill="white"/>
</svg>
