<svg width="40" height="30" viewBox="0 0 40 30" fill="none" xmlns="http://www.w3.org/2000/svg">
<path d="M5.36401 16.0846C5.36401 20.4047 6.77884 21.586 8.52334 21.586C9.37499 21.586 10.1511 20.9953 10.7211 20.0338V12.1217C10.1511 11.1602 9.37499 10.5695 8.52334 10.5695C6.77884 10.5695 5.36401 11.8332 5.36401 16.0709V16.0846ZM16.2156 13.9143L22.2665 6.84011H26.923V0.610718H32.2733V6.83324H35.1854V10.8992H32.2733V18.8181C32.2733 18.8181 32.2733 18.9486 32.2733 19.1272C32.2733 20.3154 32.5412 21.6203 35.2816 20.8099V24.8895C35.2816 24.8895 32.136 25.4115 30.6112 25.1917C29.0865 24.972 26.9162 23.9349 26.9162 21.5516V10.906H24.2788L22.5 13.0832L27.5961 24.7796H21.2431L18.1937 17.6368L16.2088 19.5873V24.7934H10.7211V23.303C9.5879 24.6423 8.12499 25.4527 6.53159 25.4527C2.92582 25.4527 0 21.325 0 16.2426C0 11.1602 2.92582 7.02555 6.53159 7.02555C8.12499 7.02555 9.5879 7.82912 10.7211 9.17527V0.610718H16.2088V13.9074L16.2156 13.9143Z" fill="white"/>
<path fill-rule="evenodd" clip-rule="evenodd" d="M36.0921 1.09203C35.7006 1.51099 35.5083 2.01236 35.5083 2.58928C35.5083 3.16621 35.7075 3.69505 36.1059 4.11401C36.5042 4.53296 36.9781 4.73901 37.5413 4.73901C38.1045 4.73901 38.5784 4.52609 38.9699 4.10714C39.3614 3.68131 39.5605 3.17994 39.5605 2.58241C39.5605 1.98489 39.3614 1.51099 38.9699 1.08516C38.5715 0.652472 38.0976 0.43956 37.5344 0.43956C36.9713 0.43956 36.4905 0.652472 36.0921 1.08516V1.09203ZM39.2515 4.44368C38.7707 4.93131 38.2006 5.1717 37.5344 5.1717C36.8682 5.1717 36.2638 4.92445 35.7899 4.42307C35.316 3.92857 35.0825 3.31044 35.0825 2.58241C35.0825 1.85439 35.3366 1.20192 35.8517 0.700549C36.3325 0.233516 36.8957 0 37.5413 0C38.2213 0 38.7982 0.254121 39.2789 0.755494C39.7597 1.26373 40.0001 1.86813 40.0001 2.58241C40.0001 3.2967 39.7528 3.93544 39.2652 4.43681L39.2515 4.44368ZM37.7542 1.7239C37.6581 1.68269 37.5207 1.66209 37.3421 1.66209H37.1704V2.49313H37.4452C37.61 2.49313 37.7405 2.45879 37.8366 2.39011C37.9328 2.32143 37.974 2.20467 37.974 2.0467C37.974 1.88873 37.8984 1.77884 37.7542 1.7239ZM36.4561 4.02472V1.16758C36.6278 1.16758 36.8751 1.16758 37.2116 1.16758C37.5482 1.16758 37.7336 1.16758 37.7748 1.16758C37.9877 1.18132 38.1663 1.23626 38.3105 1.31181C38.5509 1.44917 38.6745 1.68269 38.6745 1.99862C38.6745 2.23901 38.6127 2.41071 38.4822 2.5206C38.3586 2.63049 38.2006 2.6923 38.0152 2.71291C38.1869 2.74725 38.3174 2.80219 38.3998 2.87774C38.5578 3.01511 38.6402 3.22802 38.6402 3.51648V3.7706C38.6402 3.7706 38.6402 3.82555 38.6402 3.85302C38.6402 3.88049 38.6539 3.90796 38.6608 3.93544L38.6814 4.01785H38.0015C37.9809 3.92857 37.9671 3.7912 37.9603 3.6195C37.9603 3.4478 37.9397 3.33104 37.9191 3.26923C37.8847 3.16621 37.816 3.09752 37.7199 3.05632C37.6649 3.03571 37.5825 3.01511 37.4795 3.00824L37.3215 2.9945H37.1704V4.01098H36.4561V4.02472Z" fill="white"/>
<path d="M0.51532 29.7111V26.0985H1.1884V29.7111H0.51532Z" fill="white"/>
<path d="M1.82697 29.7111V26.0985H2.47944L3.83933 28.5092V26.0985H4.46432V29.7111H3.79125L2.45196 27.3554V29.7111H1.82697Z" fill="white"/>
<path d="M5.91299 29.7111V26.7098H4.93085V26.0985H7.56821V26.7098H6.58607V29.7111H5.91299Z" fill="white"/>
<path d="M8.00159 29.7111V26.0985H10.4604V26.7098H8.6678V27.5133H10.3367V28.1246H8.6678V29.1067H10.5222V29.718H8.00159V29.7111Z" fill="white"/>
<path d="M11.0926 29.7111V26.0985H12.5006C12.8577 26.0985 13.1119 26.1329 13.2767 26.1947C13.4347 26.2565 13.5651 26.3732 13.6613 26.5381C13.7575 26.7029 13.8055 26.8952 13.8055 27.1081C13.8055 27.376 13.73 27.6026 13.5858 27.7812C13.4415 27.9598 13.2217 28.0697 12.9264 28.1177C13.0706 28.207 13.1874 28.31 13.2836 28.4199C13.3797 28.5298 13.5033 28.7221 13.6682 29.0037L14.0734 29.7111H13.2698L12.7822 28.9282C12.6105 28.6466 12.4937 28.468 12.4319 28.3993C12.3701 28.3238 12.3014 28.2757 12.2327 28.2482C12.164 28.2208 12.0473 28.207 11.8962 28.207H11.7588V29.7111H11.0858H11.0926ZM11.7657 27.6301H12.2602C12.583 27.6301 12.7822 27.6164 12.8646 27.5889C12.947 27.5614 13.0088 27.5065 13.05 27.4378C13.0981 27.3622 13.1187 27.273 13.1187 27.1699C13.1187 27.0463 13.0912 26.9502 13.0294 26.8746C12.9676 26.7991 12.8852 26.751 12.7753 26.7304C12.7204 26.7235 12.5555 26.7166 12.2877 26.7166H11.7657V27.6301Z" fill="white"/>
<path d="M14.4432 29.7111V26.0985H15.0956L16.4555 28.5092V26.0985H17.0805V29.7111H16.4075L15.0682 27.3554V29.7111H14.4432Z" fill="white"/>
<path d="M20.7761 29.7111H20.0481L19.7597 28.8938H18.4341L18.1594 29.7111H17.452L18.7432 26.0985H19.4506L20.7761 29.7111ZM19.5399 28.2826L19.0797 26.9433L18.6333 28.2826H19.5399Z" fill="white"/>
<path d="M21.5381 29.7111V26.7098H20.5559V26.0985H23.1933V26.7098H22.2111V29.7111H21.5381Z" fill="white"/>
<path d="M23.5985 29.7111V26.0985H24.2716V29.7111H23.5985Z" fill="white"/>
<path d="M24.7735 27.9258C24.7735 27.555 24.8216 27.2528 24.9246 26.9986C25.0002 26.8132 25.1032 26.6484 25.2337 26.5041C25.3642 26.3599 25.5084 26.25 25.6595 26.1813C25.8656 26.0852 26.1059 26.0371 26.3738 26.0371C26.8614 26.0371 27.2529 26.2019 27.5483 26.5316C27.8436 26.8613 27.9878 27.3214 27.9878 27.9052C27.9878 28.489 27.8436 28.9423 27.5483 29.272C27.2598 29.6017 26.8683 29.7665 26.3807 29.7665C25.893 29.7665 25.4947 29.6017 25.2062 29.272C24.9178 28.9423 24.7667 28.4959 24.7667 27.919L24.7735 27.9258ZM25.4672 27.8984C25.4672 28.3105 25.5565 28.6195 25.7282 28.8256C25.8999 29.0385 26.1197 29.1415 26.3875 29.1415C26.6554 29.1415 26.8752 29.0385 27.0469 28.8256C27.2186 28.6127 27.301 28.3036 27.301 27.8846C27.301 27.4657 27.2186 27.1635 27.0537 26.9574C26.8889 26.7514 26.6623 26.6552 26.3875 26.6552C26.1128 26.6552 25.8862 26.7583 25.7213 26.9643C25.5496 27.1703 25.4672 27.4794 25.4672 27.8984Z" fill="white"/>
<path d="M28.5228 29.7111V26.0985H29.1752L30.5351 28.5092V26.0985H31.1601V29.7111H30.4871L29.1478 27.3554V29.7111H28.5228Z" fill="white"/>
<path d="M34.8557 29.7111H34.1277L33.8392 28.8938H32.5137L32.239 29.7111H31.5316L32.8228 26.0985H33.5302L34.8557 29.7111ZM33.6195 28.2826L33.1593 26.9433L32.7129 28.2826H33.6195Z" fill="white"/>
<path d="M35.2268 29.7121V26.1338H35.8999V29.1077H37.5688V29.7189H35.2337L35.2268 29.7121Z" fill="white"/>
</svg>
