<svg width="65" height="49" viewBox="0 0 65 49" fill="none" xmlns="http://www.w3.org/2000/svg">
<path d="M8.7167 26.1378C8.7167 33.158 11.0159 35.0777 13.8507 35.0777C15.2347 35.0777 16.4959 34.1179 17.4222 32.5553V19.6979C16.4959 18.1354 15.2347 17.1756 13.8507 17.1756C11.0159 17.1756 8.7167 19.2292 8.7167 26.1155V26.1378ZM26.351 22.6109L36.1838 11.1152H43.7509V0.992188H52.4453V11.104H57.1775V17.7113H52.4453V30.5799C52.4453 30.5799 52.4453 30.7919 52.4453 31.0821C52.4453 33.013 52.8806 35.1335 57.3338 33.8165V40.4461C57.3338 40.4461 52.2221 41.2944 49.7443 40.9372C47.2666 40.5801 43.7397 38.8948 43.7397 35.0219V17.7224H39.4539L36.5633 21.2605L44.8447 40.2676H34.5208L29.5653 28.6602L26.3398 31.8299V40.2899H17.4222V37.868C15.5807 40.0443 13.2034 41.3613 10.6141 41.3613C4.75456 41.3613 0 34.6536 0 26.3945C0 18.1354 4.75456 11.4165 10.6141 11.4165C13.2034 11.4165 15.5807 12.7223 17.4222 14.9099V0.992188H26.3398V22.5998L26.351 22.6109Z" fill="white"/>
<path fill-rule="evenodd" clip-rule="evenodd" d="M58.6492 1.77459C58.013 2.45541 57.7005 3.27016 57.7005 4.20768C57.7005 5.1452 58.0242 6.00459 58.6715 6.68541C59.3189 7.36623 60.089 7.70105 61.0042 7.70105C61.9194 7.70105 62.6895 7.35506 63.3256 6.67425C63.9618 5.98227 64.2855 5.16752 64.2855 4.19652C64.2855 3.22551 63.9618 2.45541 63.3256 1.76343C62.6783 1.06029 61.9082 0.714301 60.993 0.714301C60.0778 0.714301 59.2965 1.06029 58.6492 1.76343V1.77459ZM63.7832 7.22113C63.002 8.01356 62.0756 8.40419 60.993 8.40419C59.9104 8.40419 58.9282 8.0024 58.1581 7.18765C57.388 6.38406 57.0085 5.37958 57.0085 4.19652C57.0085 3.01346 57.4215 1.95317 58.2586 1.13842C59.0398 0.379472 59.955 0 61.0042 0C62.1091 0 63.0466 0.412955 63.8279 1.2277C64.6091 2.05361 64.9998 3.03578 64.9998 4.19652C64.9998 5.35725 64.598 6.39522 63.8056 7.20997L63.7832 7.22113ZM61.3502 2.8014C61.1939 2.73443 60.9707 2.70095 60.6805 2.70095H60.4015V4.05142H60.8479C61.1158 4.05142 61.3278 3.99562 61.4841 3.88401C61.6403 3.7724 61.7073 3.58266 61.7073 3.32596C61.7073 3.06926 61.5845 2.89069 61.3502 2.8014ZM59.2407 6.54032V1.89736C59.5198 1.89736 59.9216 1.89736 60.4684 1.89736C61.0153 1.89736 61.3167 1.89736 61.3836 1.89736C61.7296 1.91968 62.0198 2.00897 62.2542 2.13174C62.6448 2.35496 62.8457 2.73443 62.8457 3.24784C62.8457 3.63847 62.7453 3.91749 62.5332 4.09607C62.3323 4.27464 62.0756 4.37509 61.7743 4.40857C62.0533 4.46438 62.2653 4.55367 62.3993 4.67644C62.656 4.89966 62.7899 5.24565 62.7899 5.71441V6.12736C62.7899 6.12736 62.7899 6.21665 62.7899 6.26129C62.7899 6.30594 62.8122 6.35058 62.8234 6.39522L62.8569 6.52916H61.7519C61.7185 6.38406 61.6961 6.16084 61.685 5.88182C61.685 5.6028 61.6515 5.41306 61.618 5.31261C61.5622 5.1452 61.4506 5.03359 61.2943 4.96662C61.2051 4.93314 61.0711 4.89966 60.9037 4.8885L60.647 4.86617H60.4015V6.51799H59.2407V6.54032Z" fill="white"/>
<path d="M0.838867 48.2828V42.4121H1.93264V48.2828H0.838867Z" fill="white"/>
<path d="M2.96875 48.2828V42.4121H4.02904L6.23891 46.3296V42.4121H7.25455V48.2828H6.16078L3.9844 44.4546V48.2828H2.96875Z" fill="white"/>
<path d="M9.60773 48.2828V43.4054H8.01172V42.4121H12.2975V43.4054H10.7015V48.2828H9.60773Z" fill="white"/>
<path d="M13.0029 48.2828V42.4121H16.9985V43.4054H14.0855V44.7113H16.7977V45.7046H14.0855V47.3006H17.099V48.2939H13.0029V48.2828Z" fill="white"/>
<path d="M18.0248 48.2828V42.4121H20.3128C20.8932 42.4121 21.3062 42.4679 21.574 42.5684C21.8307 42.6688 22.0428 42.8585 22.199 43.1264C22.3553 43.3943 22.4334 43.7068 22.4334 44.0528C22.4334 44.488 22.3106 44.8564 22.0763 45.1465C21.8419 45.4367 21.4847 45.6153 21.0048 45.6934C21.2392 45.8385 21.4289 46.0059 21.5852 46.1845C21.7414 46.3631 21.9423 46.6756 22.2102 47.1332L22.8687 48.2828H21.5629L20.7704 47.0104C20.4914 46.5528 20.3017 46.2626 20.2012 46.151C20.1008 46.0283 19.9892 45.9501 19.8776 45.9055C19.7659 45.8608 19.5762 45.8385 19.3307 45.8385H19.1074V48.2828H18.0137H18.0248ZM19.1186 44.901H19.9222C20.4468 44.901 20.7704 44.8787 20.9044 44.834C21.0383 44.7894 21.1387 44.7001 21.2057 44.5885C21.2838 44.4657 21.3173 44.3206 21.3173 44.1532C21.3173 43.9523 21.2727 43.7961 21.1722 43.6733C21.0718 43.5505 20.9378 43.4724 20.7593 43.4389C20.67 43.4278 20.4021 43.4166 19.9668 43.4166H19.1186V44.901Z" fill="white"/>
<path d="M23.4727 48.2828V42.4121H24.5329L26.7428 46.3296V42.4121H27.7585V48.2828H26.6647L24.4883 44.4546V48.2828H23.4727Z" fill="white"/>
<path d="M33.7632 48.2828H32.5802L32.1114 46.9546H29.9573L29.5109 48.2828H28.3613L30.4596 42.4121H31.6092L33.7632 48.2828ZM31.7543 45.9613L31.0065 43.7849L30.281 45.9613H31.7543Z" fill="white"/>
<path d="M34.9993 48.2828V43.4054H33.4033V42.4121H37.6891V43.4054H36.0931V48.2828H34.9993Z" fill="white"/>
<path d="M38.3496 48.2828V42.4121H39.4434V48.2828H38.3496Z" fill="white"/>
<path d="M40.2582 45.3798C40.2582 44.7771 40.3364 44.286 40.5038 43.8731C40.6265 43.5717 40.794 43.3039 41.006 43.0695C41.2181 42.8351 41.4525 42.6565 41.698 42.5449C42.0328 42.3887 42.4235 42.3105 42.8587 42.3105C43.6512 42.3105 44.2873 42.5784 44.7673 43.1141C45.2472 43.6499 45.4816 44.3976 45.4816 45.3463C45.4816 46.295 45.2472 47.0316 44.7673 47.5674C44.2985 48.1031 43.6623 48.3709 42.8699 48.3709C42.0775 48.3709 41.4301 48.1031 40.9614 47.5674C40.4926 47.0316 40.2471 46.3062 40.2471 45.3686L40.2582 45.3798ZM41.3855 45.3352C41.3855 46.0048 41.5306 46.5071 41.8096 46.8419C42.0886 47.1879 42.4458 47.3553 42.8811 47.3553C43.3163 47.3553 43.6735 47.1879 43.9525 46.8419C44.2315 46.4959 44.3655 45.9937 44.3655 45.3128C44.3655 44.632 44.2315 44.1409 43.9637 43.8061C43.6958 43.4713 43.3275 43.315 42.8811 43.315C42.4346 43.315 42.0663 43.4824 41.7984 43.8173C41.5194 44.1521 41.3855 44.6543 41.3855 45.3352Z" fill="white"/>
<path d="M46.3496 48.2828V42.4121H47.4099L49.6198 46.3296V42.4121H50.6354V48.2828H49.5416L47.3653 44.4546V48.2828H46.3496Z" fill="white"/>
<path d="M56.6402 48.2828H55.4571L54.9884 46.9546H52.8343L52.3879 48.2828H51.2383L53.3365 42.4121H54.4861L56.6402 48.2828ZM54.6312 45.9613L53.8834 43.7849L53.158 45.9613H54.6312Z" fill="white"/>
<path d="M57.2441 48.2836V42.4688H58.3379V47.3014H61.05V48.2948H57.2553L57.2441 48.2836Z" fill="white"/>
</svg>
