<svg width="12" height="23" viewBox="0 0 12 23" fill="none" xmlns="http://www.w3.org/2000/svg">
<path d="M11.5002 10.0426L11.224 12.2286C11.1778 12.5944 10.8644 12.869 10.4923 12.869H6.90282V22.0079C6.52403 22.0412 6.14073 22.059 5.75291 22.059C4.88597 22.059 4.03933 21.9734 3.22087 21.8111V12.8702H0.459963C0.206307 12.8702 0 12.6656 0 12.4143V9.67896C0 9.42878 0.207434 9.22308 0.459963 9.22308H3.22087V5.12122C3.22087 2.60384 5.28168 0.563477 7.82274 0.563477H11.0436C11.2973 0.563477 11.5036 0.768069 11.5036 1.01936V3.75467C11.5036 4.00486 11.2961 4.21056 11.0436 4.21056H8.74267C7.72692 4.21056 6.90282 5.02671 6.90282 6.0341V9.22419H10.7685C11.2127 9.22419 11.5554 9.60891 11.5002 10.0448V10.0426Z" fill="white"/>
</svg>
