<svg width="128" height="49" viewBox="0 0 128 49" fill="none" xmlns="http://www.w3.org/2000/svg">
<path fill-rule="evenodd" clip-rule="evenodd" d="M41.8957 35.6023C39.4272 23.7378 36.9587 11.8689 34.4858 0C42.0478 1.23861 46.9892 5.16303 48.7667 12.3252C50.24 20.5304 47.8323 28.275 41.8914 35.6023H41.8957ZM27.1932 10.2478L31.2524 28.6879H17.5756L27.1932 10.2478ZM21.0176 2.30772C14.7246 14.4852 8.43161 26.6583 2.13863 38.8358C0.413268 33.3859 -1.83361 28.3272 4.78533 16.6886C9.18782 9.37864 14.9158 5.38033 21.0176 2.30772ZM13.4295 36.4976H32.7518C33.1907 38.5402 33.634 40.5872 34.0729 42.6298C30.4745 44.981 26.5718 46.9149 21.8433 47.7146C16.7455 48.5099 12.356 47.8189 8.67064 45.6503L13.4252 36.4976H13.4295Z" fill="#E30613"/>
<path d="M94.3298 5.92358H96.0813V7.65329H94.3298V5.92358ZM94.3472 8.72675H96.09V17.4318H94.3472V8.72675ZM92.6088 11.8646H90.8791C90.8791 11.4169 90.966 10.7302 90.7574 10.3435C90.6662 10.1783 90.4097 10.0957 90.2011 10.0957C90.0099 10.0957 89.6666 10.174 89.6144 10.3565C89.3059 11.43 89.4102 14.8981 89.6144 15.8585C89.6535 16.0367 90.0012 16.1062 90.1924 16.1062C90.3924 16.1062 90.6966 16.028 90.7618 15.8498C90.9356 15.3587 90.8878 14.5026 90.9008 13.9593L92.6132 13.9289C92.5958 14.8155 92.8174 16.5148 92.2046 17.1536C91.8005 17.5752 91.1442 17.7838 90.2403 17.7838C89.2276 17.7838 88.6453 17.5143 88.2541 16.9711C87.8673 16.4278 87.6935 15.2153 87.6935 13.7507V12.4556C87.6935 10.991 87.7674 9.98708 88.1585 9.44383C88.5453 8.90059 89.2494 8.63114 90.262 8.63114C91.1659 8.63114 91.6179 8.83974 92.0221 9.25696C92.6392 9.89582 92.6175 11.0301 92.6175 11.8602L92.6088 11.8646ZM76.7242 9.9132C76.985 9.46556 77.2718 9.2048 77.5369 9.00054C77.802 8.80063 78.1019 8.69632 78.4322 8.69632C78.9668 8.69632 79.523 8.91362 79.736 9.27434C79.949 9.63071 80.0533 10.1696 80.0576 11.1301L80.0706 17.4231H78.354L78.3409 11.4082C78.3409 11.0562 78.2062 10.4 77.6238 10.3869C76.8894 10.3695 76.9459 10.7781 76.9459 11.4082V17.4318H75.1944V11.4082C75.1944 10.8519 75.1771 10.3913 74.4165 10.3913C73.7255 10.3913 73.8037 11.0562 73.8037 11.4082L73.8124 17.4231H72.0436L72.0349 8.84409H73.6777L73.7385 9.83063C73.9776 9.41776 74.1949 9.18742 74.4556 8.99185C74.712 8.80063 74.9945 8.70502 75.2944 8.70502C75.6768 8.70502 75.9898 8.81367 76.2288 9.03531C76.4678 9.25696 76.6634 9.50033 76.7199 9.9132H76.7242ZM71.0179 8.69198V11.1648C70.6616 11.1648 70.3096 11.1648 69.9575 11.1648C69.7402 11.1475 69.6316 11.2518 69.6272 11.4821L69.6142 17.4361H67.8758L67.8671 8.73544H69.2839L69.2622 10.1305C69.5707 9.87843 69.8141 9.32215 70.1661 9.04835C70.479 8.80932 70.6268 8.69632 71.0136 8.69632L71.0179 8.69198ZM66.472 11.1257V17.4231H64.7641L64.6772 16.6625C64.2208 17.2362 63.5342 17.7707 62.8127 17.7707C61.6437 17.7707 61.1004 16.2931 61.1134 15.2588C61.1265 14.0636 61.6263 13.2813 62.6867 12.6642C63.3951 12.2513 64.2599 12.1775 64.3773 11.7385L64.3947 11.2605C64.4077 10.8519 64.4772 10.087 63.8253 10.087C62.9431 10.087 62.9909 10.7607 62.9909 11.4995H61.2612C61.2612 9.70025 61.9913 8.70502 63.9427 8.70936C65.8462 8.70936 66.4764 9.88713 66.4764 11.1344L66.472 11.1257ZM64.7467 13.1553C63.4298 13.4813 62.9866 13.7159 62.9953 15.0589C62.9996 15.7933 63.0865 16.0845 63.7254 16.0758C64.0818 16.0715 64.5728 15.6151 64.751 15.3283V13.1553H64.7467ZM55.0508 5.92358L60.2269 5.93662L60.2182 8.02704H57.0891L57.0804 10.4651H59.8661V12.5512L57.0891 12.5599L57.0977 17.4274H54.9856L55.0508 5.92793V5.92358ZM86.2941 11.1214V17.4187H84.5861L84.4992 16.6582C84.0429 17.2318 83.3562 17.7664 82.6348 17.7664C81.4657 17.7664 80.9225 16.2888 80.9355 15.2544C80.9485 14.0593 81.4483 13.277 82.5087 12.6599C83.2171 12.247 84.082 12.1731 84.1993 11.7342L84.2167 11.2561C84.2297 10.8476 84.2993 10.0827 83.6474 10.0827C82.7652 10.0827 82.813 10.7563 82.813 11.4951H81.0833C81.0833 9.6959 81.8134 8.70067 83.7647 8.70502C85.6683 8.70502 86.2984 9.88278 86.2984 11.1301L86.2941 11.1214ZM84.5687 13.151C83.2519 13.4769 82.8086 13.7116 82.8173 15.0545C82.8216 15.789 82.9086 16.0802 83.5474 16.0715C83.9038 16.0671 84.3949 15.6108 84.5731 15.324V13.151H84.5687ZM102.692 11.1344V17.4318H100.984L100.897 16.6712C100.44 17.2449 99.7536 17.7794 99.0322 17.7794C97.8631 17.7794 97.3199 16.3018 97.3329 15.2675C97.3459 14.0723 97.8457 13.29 98.9062 12.6729C99.6145 12.26 100.479 12.1862 100.597 11.7472L100.614 11.2692C100.627 10.8606 100.697 10.0957 100.045 10.0957C99.1626 10.0957 99.2104 10.7694 99.2104 11.5082H97.4807C97.4807 9.70894 98.2108 8.71371 100.162 8.71371C102.066 8.71371 102.696 9.89147 102.696 11.1388L102.692 11.1344ZM100.966 13.164C99.6493 13.49 99.206 13.7246 99.2147 15.0675C99.2191 15.802 99.306 16.0932 99.9448 16.0845C100.301 16.0802 100.792 15.6238 100.97 15.337V13.164H100.966ZM125.682 5.93662H127.785L127.777 17.4013H125.673L125.682 5.93662ZM122.548 11.1779C122.557 10.6651 122.309 10.0479 121.701 10.0479C120.966 10.0479 120.797 10.8606 120.81 11.2257L120.832 11.8472L122.535 11.8689L122.548 11.1779ZM124.3 12.4513V13.2466H120.845V14.9154C120.845 15.5717 120.866 16.1193 121.67 16.1193C122.474 16.1193 122.561 15.6108 122.561 14.9154V14.6416H124.295V14.898C124.295 16.5191 123.37 17.7403 121.766 17.7534C120.162 17.7664 119.102 16.8233 119.098 15.4065L119.08 12.4556C119.072 10.9997 119.25 10.074 119.637 9.52641C120.019 8.97881 120.814 8.65721 121.796 8.65721C122.779 8.65721 123.522 8.97447 123.9 9.50902C124.278 10.0479 124.3 10.978 124.3 12.4556V12.4513ZM115.916 5.93228H118.015L117.976 17.4187H116.307L116.251 16.3713C116.051 16.7799 115.482 17.2753 115.238 17.4709C114.999 17.6621 114.726 17.7577 114.421 17.7577C113.891 17.7577 113.5 17.5578 113.244 17.1623C112.987 16.7668 112.844 15.9628 112.844 15.1371V11.0345C112.844 10.0783 113.065 9.68286 113.322 9.28738C113.574 8.89189 113.874 8.62244 114.408 8.62244C114.708 8.62244 115.095 8.74848 115.334 8.9397C115.569 9.12658 115.716 9.4308 115.925 9.84801V5.93228H115.916ZM115.877 11.3952C115.877 10.9432 115.886 10.3826 115.299 10.3695C114.734 10.3565 114.604 10.7476 114.604 11.3952V14.7981C114.604 15.6195 114.873 15.9367 115.273 15.9411C115.851 15.9454 115.877 15.2023 115.877 14.7981V11.3952ZM108.589 10.8693L108.576 11.1214H106.872V10.9041C106.872 10.3608 106.929 10.0697 106.147 10.0697C105.36 10.0305 105.39 10.5434 105.39 10.9084C105.39 11.1127 105.447 11.2865 105.56 11.4386C105.673 11.5908 105.912 11.7733 106.268 11.9949L107.294 12.6077C107.698 12.8511 108.094 13.1597 108.293 13.5334C108.493 13.9072 108.598 14.3418 108.598 14.8459V15.2848C108.598 16.0758 108.311 16.6973 107.881 17.0624C107.45 17.4274 106.738 17.7142 105.799 17.7142C105.173 17.7142 104.825 17.4926 104.504 17.2405C103.987 16.832 103.704 16.2105 103.704 15.2631V14.9589H105.277C105.277 15.3196 105.269 15.8976 105.473 16.1888C105.564 16.3192 105.877 16.3844 106.12 16.3844C106.572 16.3844 106.864 16.1236 106.864 15.237C106.864 14.9763 106.785 14.8198 106.664 14.6156C106.338 14.0767 105.338 13.6508 104.795 13.3378C104.265 13.0336 104.095 12.7946 103.891 12.4904C103.682 12.1862 103.674 11.8081 103.674 11.3604V10.7129C103.674 10.074 103.804 9.57856 104.256 9.22219C104.704 8.86582 105.138 8.62244 105.955 8.62244C106.772 8.62244 107.424 8.80497 107.794 9.16569C108.159 9.52641 108.589 10.0045 108.589 10.8693Z" fill="#004A9A"/>
<path fill-rule="evenodd" clip-rule="evenodd" d="M55.2771 20.5263L44.0645 41.8434H49.3014L51.7873 37.241H57.4457L57.4979 41.8434H62.5784L61.996 20.6306L55.2771 20.5263ZM57.4544 26.5455L53.6604 33.4557H57.4544V26.5455ZM67.1808 20.635H71.9961L70.94 27.5625L71.3399 27.5451C72.2612 27.1322 73.6389 26.815 74.6906 26.9019C75.9901 27.0106 78.1066 27.6538 77.9936 29.3226L76.6072 41.8347H71.7093C72.1222 38.6448 72.5307 35.3201 72.9435 32.1301C73.113 31.1001 73.0261 30.3396 72.1439 30.3005C70.8097 30.2396 70.6228 31.0567 70.4663 32.1301L69.1452 41.8391H64.3819L67.1808 20.6306V20.635ZM80.7967 30.131C82.1483 27.8015 84.5604 26.7759 86.8246 26.7541C89.6017 26.7237 90.8186 27.7363 91.7095 29.4139C92.6004 31.0914 92.1528 35.3027 91.0272 37.5452C89.5583 40.0181 87.4026 41.8912 84.2692 41.9303C81.1357 41.9694 79.8884 41.0351 79.2539 38.5405C78.6194 36.0459 79.4408 32.4604 80.7924 30.1353L80.7967 30.131ZM87.2853 30.9828C87.7634 32.6473 87.0028 36.5326 85.7946 38.0363C85.2383 38.7317 84.3648 38.8664 83.8998 37.9624C83.1175 36.437 83.9259 32.443 85.1558 30.7655C85.7077 30.0093 86.9811 29.9267 87.2853 30.9828ZM115.669 30.131C117.021 27.8015 119.433 26.7759 121.697 26.7541C124.474 26.7237 125.691 27.7363 126.582 29.4139C127.473 31.0914 127.025 35.3027 125.899 37.5452C124.43 40.0181 122.275 41.8912 119.146 41.9303C116.012 41.9694 114.765 41.0351 114.13 38.5405C113.496 36.0459 114.317 32.4604 115.669 30.1353V30.131ZM122.158 30.9828C122.636 32.6473 121.875 36.5326 120.667 38.0363C120.111 38.7317 119.237 38.8664 118.772 37.9624C117.99 36.437 118.798 32.443 120.028 30.7655C120.58 30.0093 121.853 29.9267 122.158 30.9828ZM94.7734 26.8411C96.3597 26.8541 97.9504 26.8715 99.5366 26.8845C99.541 27.0975 99.5453 27.3061 99.5497 27.519C99.5497 27.5277 99.8365 27.519 100.215 27.4669C101.201 27.3191 102.583 26.9845 103.287 26.9106L102.731 31.639C102.37 31.5999 99.1629 31.5478 98.6979 33.6816C98.2111 35.7547 97.7504 41.8434 97.7504 41.8434H92.8091L94.7734 26.8454V26.8411ZM105.252 26.815C106.838 26.828 108.429 26.8454 110.015 26.8584C110.019 27.0714 110.024 27.28 110.028 27.493C110.028 27.5016 110.315 27.493 110.693 27.4408C111.679 27.293 113.061 26.9584 113.765 26.8845L113.209 31.613C112.848 31.5738 109.641 31.5217 109.176 33.6556C108.689 35.7286 108.25 41.8608 108.25 41.8608H103.309L105.252 26.8193V26.815Z" fill="#004A9A"/>
<path d="M124.626 43.9074V44.4855H124.886C125.034 44.4855 125.143 44.4637 125.212 44.4203C125.282 44.3768 125.312 44.3029 125.312 44.2073C125.312 44.1117 125.278 44.0291 125.204 43.9813C125.134 43.9335 125.021 43.9118 124.865 43.9118H124.621L124.626 43.9074ZM124.23 43.6597H124.939C125.195 43.6597 125.386 43.7032 125.521 43.7858C125.651 43.8683 125.717 43.9944 125.717 44.1552C125.717 44.2899 125.682 44.3985 125.612 44.4898C125.543 44.5767 125.443 44.6376 125.308 44.6636L125.717 45.4937H125.278L124.913 44.7245H124.626V45.4937H124.23V43.6554V43.6597ZM124.899 43.2164C124.708 43.2164 124.534 43.2512 124.369 43.3164C124.204 43.3816 124.061 43.4815 123.926 43.6119C123.791 43.751 123.687 43.9031 123.613 44.0769C123.539 44.2464 123.504 44.4246 123.504 44.6071C123.504 44.7897 123.539 44.9679 123.609 45.133C123.678 45.2982 123.778 45.4503 123.909 45.5806C124.039 45.7154 124.191 45.8153 124.361 45.8892C124.53 45.9587 124.7 45.9979 124.878 45.9979C125.069 45.9979 125.251 45.9631 125.421 45.8936C125.59 45.824 125.747 45.7241 125.882 45.5893C126.012 45.4633 126.112 45.3155 126.186 45.1504C126.255 44.9852 126.29 44.8114 126.29 44.6245C126.29 44.429 126.255 44.2464 126.19 44.0769C126.125 43.9074 126.025 43.7597 125.895 43.625C125.76 43.4902 125.604 43.3859 125.438 43.3164C125.269 43.2469 125.091 43.2121 124.899 43.2121V43.2164ZM124.899 42.9731C125.125 42.9731 125.338 43.0165 125.538 43.0947C125.738 43.1773 125.916 43.299 126.073 43.4598C126.225 43.6119 126.342 43.7858 126.421 43.9813C126.499 44.1769 126.538 44.3855 126.538 44.6071C126.538 44.8288 126.499 45.0461 126.416 45.2417C126.334 45.4416 126.216 45.6154 126.06 45.7675C125.899 45.924 125.721 46.0413 125.521 46.1239C125.321 46.2065 125.117 46.2499 124.899 46.2499C124.682 46.2499 124.474 46.2065 124.274 46.1239C124.074 46.0413 123.896 45.9153 123.739 45.7588C123.583 45.6024 123.465 45.4242 123.387 45.2286C123.304 45.0331 123.265 44.8244 123.265 44.6115C123.265 44.3985 123.309 44.1856 123.391 43.9813C123.474 43.7771 123.6 43.5989 123.756 43.4381C123.909 43.286 124.082 43.1686 124.274 43.0904C124.465 43.0122 124.673 42.9731 124.899 42.9731Z" fill="#004A9A"/>
</svg>
