<svg width="22" height="22" viewBox="0 0 22 22" fill="none" xmlns="http://www.w3.org/2000/svg">
<path d="M10.7818 1.94232C13.6604 1.94232 14.0012 1.95285 15.1384 2.00454C16.1895 2.05241 16.761 2.22759 17.1401 2.37597C17.6436 2.57125 18.0026 2.80483 18.3798 3.182C18.7569 3.55916 18.9905 3.91814 19.1858 4.42167C19.3332 4.80171 19.5093 5.37225 19.5572 6.42334C19.6089 7.56059 19.6194 7.90138 19.6194 10.7799C19.6194 13.6585 19.6089 13.9993 19.5572 15.1365C19.5093 16.1876 19.3342 16.7591 19.1858 17.1382C18.9905 17.6417 18.7569 18.0007 18.3798 18.3778C18.0026 18.755 17.6436 18.9886 17.1401 19.1839C16.76 19.3313 16.1895 19.5074 15.1384 19.5553C14.0012 19.607 13.6604 19.6175 10.7818 19.6175C7.9033 19.6175 7.56251 19.607 6.42526 19.5553C5.37417 19.5074 4.80267 19.3323 4.42358 19.1839C3.92005 18.9876 3.56108 18.755 3.18391 18.3778C2.80674 18.0007 2.57316 17.6417 2.37788 17.1382C2.23046 16.7581 2.05432 16.1876 2.00645 15.1365C1.95476 13.9993 1.94423 13.6585 1.94423 10.7799C1.94423 7.90138 1.95476 7.56059 2.00645 6.42334C2.05432 5.37225 2.2295 4.80076 2.37788 4.42167C2.57316 3.91814 2.80674 3.55916 3.18391 3.182C3.56108 2.80483 3.92005 2.57125 4.42358 2.37597C4.80362 2.22855 5.37417 2.05241 6.42526 2.00454C7.56251 1.95285 7.9033 1.94232 10.7818 1.94232ZM10.7818 0C7.85352 0 7.48688 0.0124439 6.33718 0.0650943C5.18941 0.117745 4.40635 0.299628 3.71999 0.566709C3.01064 0.842406 2.40946 1.21096 1.81021 1.81021C1.21095 2.40947 0.841441 3.01064 0.566702 3.71999C0.300578 4.4054 0.117739 5.18941 0.0650884 6.33719C0.0124381 7.48688 0 7.85448 0 10.7818C0 13.7092 0.0124381 14.0768 0.0650884 15.2265C0.117739 16.3743 0.299621 17.1573 0.566702 17.8437C0.842398 18.553 1.21095 19.1542 1.81021 19.7535C2.40946 20.3527 3.01064 20.7213 3.71999 20.997C4.4054 21.2631 5.18941 21.4459 6.33718 21.4986C7.48688 21.5512 7.85448 21.5637 10.7818 21.5637C13.7092 21.5637 14.0768 21.5512 15.2265 21.4986C16.3743 21.4459 17.1573 21.264 17.8437 20.997C18.553 20.7213 19.1542 20.3527 19.7535 19.7535C20.3527 19.1542 20.7213 18.553 20.997 17.8437C21.2631 17.1583 21.4459 16.3743 21.4986 15.2265C21.5512 14.0768 21.5637 13.7092 21.5637 10.7818C21.5637 7.85448 21.5512 7.48688 21.4986 6.33719C21.4459 5.18941 21.264 4.40636 20.997 3.71999C20.7213 3.01064 20.3527 2.40947 19.7535 1.81021C19.1542 1.21096 18.553 0.842406 17.8437 0.566709C17.1583 0.300586 16.3743 0.117745 15.2265 0.0650943C14.0768 0.0124439 13.7092 0 10.7818 0ZM10.7818 5.24493C7.72429 5.24493 5.24588 7.72333 5.24588 10.7809C5.24588 13.8384 7.72429 16.3168 10.7818 16.3168C13.8394 16.3168 16.3178 13.8384 16.3178 10.7809C16.3178 7.72333 13.8394 5.24493 10.7818 5.24493ZM10.7818 14.3745C8.7974 14.3745 7.18821 12.7653 7.18821 10.7809C7.18821 8.79644 8.7974 7.18725 10.7818 7.18725C12.7663 7.18725 14.3755 8.79644 14.3755 10.7809C14.3755 12.7653 12.7663 14.3745 10.7818 14.3745ZM16.537 3.73243C15.8219 3.73243 15.2437 4.31159 15.2437 5.02572C15.2437 5.73985 15.8229 6.319 16.537 6.319C17.2511 6.319 17.8303 5.73985 17.8303 5.02572C17.8303 4.31159 17.2511 3.73243 16.537 3.73243Z" fill="white"/>
</svg>
