<svg width="124" height="57" viewBox="0 0 124 57" fill="none" xmlns="http://www.w3.org/2000/svg">
<path d="M118.324 9.70835H113.751V5.13547C113.751 2.30808 111.458 0 108.616 0C105.774 0 103.48 2.29365 103.48 5.13547V9.70835H98.9074C96.08 9.70835 93.772 12.002 93.772 14.8438C93.772 17.6712 96.0656 19.9793 98.9074 19.9793H103.48V24.5522C103.48 27.3796 105.774 29.6876 108.616 29.6876C111.458 29.6876 113.751 27.394 113.751 24.5522V19.9793H118.324C121.152 19.9793 123.46 17.6856 123.46 14.8438C123.46 12.0164 121.166 9.70835 118.324 9.70835Z" fill="#009A3E"/>
<path d="M114.213 11.3674C114.38 11.3674 114.516 11.2318 114.516 11.0645C114.516 10.8972 114.38 10.7616 114.213 10.7616C114.046 10.7616 113.91 10.8972 113.91 11.0645C113.91 11.2318 114.046 11.3674 114.213 11.3674Z" fill="#28316E"/>
<path d="M114.531 12.6077C114.531 12.7809 114.386 12.9107 114.228 12.9107C114.069 12.9107 113.925 12.7664 113.925 12.6077C113.925 12.4491 114.069 12.3048 114.228 12.3048C114.386 12.3048 114.531 12.4491 114.531 12.6077Z" fill="#28316E"/>
<path d="M114.213 14.4546C114.38 14.4546 114.516 14.319 114.516 14.1517C114.516 13.9844 114.38 13.8488 114.213 13.8488C114.046 13.8488 113.91 13.9844 113.91 14.1517C113.91 14.319 114.046 14.4546 114.213 14.4546Z" fill="#28316E"/>
<path d="M114.213 15.9976C114.38 15.9976 114.516 15.862 114.516 15.6947C114.516 15.5274 114.38 15.3918 114.213 15.3918C114.046 15.3918 113.91 15.5274 113.91 15.6947C113.91 15.862 114.046 15.9976 114.213 15.9976Z" fill="#28316E"/>
<path d="M114.213 17.5414C114.38 17.5414 114.516 17.4057 114.516 17.2384C114.516 17.0711 114.38 16.9355 114.213 16.9355C114.046 16.9355 113.91 17.0711 113.91 17.2384C113.91 17.4057 114.046 17.5414 114.213 17.5414Z" fill="#28316E"/>
<path d="M114.531 18.7822C114.531 18.9553 114.386 19.0851 114.228 19.0851C114.069 19.0851 113.925 18.9408 113.925 18.7822C113.925 18.6235 114.069 18.4792 114.228 18.4792C114.386 18.4792 114.531 18.6235 114.531 18.7822Z" fill="#28316E"/>
<path d="M114.991 12.1317C115.158 12.1317 115.294 11.9961 115.294 11.8288C115.294 11.6614 115.158 11.5258 114.991 11.5258C114.824 11.5258 114.688 11.6614 114.688 11.8288C114.688 11.9961 114.824 12.1317 114.991 12.1317Z" fill="#28316E"/>
<path d="M114.991 13.6899C115.158 13.6899 115.294 13.5542 115.294 13.3869C115.294 13.2196 115.158 13.084 114.991 13.084C114.824 13.084 114.688 13.2196 114.688 13.3869C114.688 13.5542 114.824 13.6899 114.991 13.6899Z" fill="#28316E"/>
<path d="M114.991 15.2331C115.158 15.2331 115.294 15.0975 115.294 14.9302C115.294 14.7629 115.158 14.6272 114.991 14.6272C114.824 14.6272 114.688 14.7629 114.688 14.9302C114.688 15.0975 114.824 15.2331 114.991 15.2331Z" fill="#28316E"/>
<path d="M114.991 16.7768C115.158 16.7768 115.294 16.6412 115.294 16.4739C115.294 16.3066 115.158 16.171 114.991 16.171C114.824 16.171 114.688 16.3066 114.688 16.4739C114.688 16.6412 114.824 16.7768 114.991 16.7768Z" fill="#28316E"/>
<path d="M114.991 18.3203C115.158 18.3203 115.294 18.1847 115.294 18.0174C115.294 17.8501 115.158 17.7144 114.991 17.7144C114.824 17.7144 114.688 17.8501 114.688 18.0174C114.688 18.1847 114.824 18.3203 114.991 18.3203Z" fill="#28316E"/>
<path d="M116.002 11.0643C116.002 11.2085 115.887 11.3384 115.728 11.3384C115.569 11.3384 115.454 11.2085 115.454 11.0643C115.454 10.92 115.569 10.7902 115.728 10.7902C115.887 10.7902 116.002 10.92 116.002 11.0643Z" fill="#28316E"/>
<path d="M116.002 12.608C116.002 12.7523 115.887 12.8821 115.728 12.8821C115.569 12.8821 115.454 12.7523 115.454 12.608C115.454 12.4638 115.569 12.3339 115.728 12.3339C115.887 12.3339 116.002 12.4638 116.002 12.608Z" fill="#28316E"/>
<path d="M116.002 14.1517C116.002 14.296 115.887 14.4258 115.728 14.4258C115.569 14.4258 115.454 14.296 115.454 14.1517C115.454 14.0075 115.569 13.8777 115.728 13.8777C115.887 13.8777 116.002 14.0075 116.002 14.1517Z" fill="#28316E"/>
<path d="M115.728 15.9691C115.879 15.9691 116.002 15.8464 116.002 15.695C116.002 15.5436 115.879 15.4209 115.728 15.4209C115.576 15.4209 115.454 15.5436 115.454 15.695C115.454 15.8464 115.576 15.9691 115.728 15.9691Z" fill="#28316E"/>
<path d="M116.002 17.2382C116.002 17.3824 115.887 17.5123 115.728 17.5123C115.569 17.5123 115.454 17.3824 115.454 17.2382C115.454 17.0939 115.569 16.9641 115.728 16.9641C115.887 16.9641 116.002 17.0939 116.002 17.2382Z" fill="#28316E"/>
<path d="M116.002 18.7822C116.002 18.9264 115.887 19.0563 115.728 19.0563C115.569 19.0563 115.454 18.9264 115.454 18.7822C115.454 18.6379 115.569 18.5081 115.728 18.5081C115.887 18.5081 116.002 18.6379 116.002 18.7822Z" fill="#28316E"/>
<path d="M116.722 11.8291C116.722 11.9589 116.621 12.0743 116.477 12.0743C116.333 12.0743 116.232 11.9733 116.232 11.8291C116.232 11.6848 116.333 11.5838 116.477 11.5838C116.621 11.5838 116.722 11.6848 116.722 11.8291Z" fill="#28316E"/>
<path d="M116.722 13.387C116.722 13.5168 116.621 13.6322 116.477 13.6322C116.333 13.6322 116.232 13.5312 116.232 13.387C116.232 13.2427 116.333 13.1418 116.477 13.1418C116.621 13.1418 116.722 13.2427 116.722 13.387Z" fill="#28316E"/>
<path d="M116.708 14.9302C116.708 15.0601 116.607 15.161 116.477 15.161C116.348 15.161 116.247 15.0601 116.247 14.9302C116.247 14.8004 116.348 14.6994 116.477 14.6994C116.607 14.6994 116.708 14.8004 116.708 14.9302Z" fill="#28316E"/>
<path d="M116.722 16.474C116.722 16.6038 116.621 16.7192 116.477 16.7192C116.333 16.7192 116.232 16.6182 116.232 16.474C116.232 16.3297 116.333 16.2287 116.477 16.2287C116.621 16.2287 116.722 16.3297 116.722 16.474Z" fill="#28316E"/>
<path d="M116.722 18.0172C116.722 18.147 116.621 18.2624 116.477 18.2624C116.333 18.2624 116.232 18.1615 116.232 18.0172C116.232 17.873 116.333 17.772 116.477 17.772C116.621 17.772 116.722 17.873 116.722 18.0172Z" fill="#28316E"/>
<path d="M117.432 11.1375C117.432 11.2535 117.345 11.3404 117.229 11.3404C117.113 11.3404 117.026 11.2535 117.026 11.1375C117.026 11.0215 117.113 10.9346 117.229 10.9346C117.345 10.9346 117.432 11.0215 117.432 11.1375Z" fill="#28316E"/>
<path d="M117.461 12.681C117.461 12.7969 117.374 12.8839 117.258 12.8839C117.142 12.8839 117.055 12.7969 117.055 12.681C117.055 12.565 117.142 12.4781 117.258 12.4781C117.374 12.4781 117.461 12.565 117.461 12.681Z" fill="#28316E"/>
<path d="M117.461 14.2245C117.461 14.3404 117.374 14.4274 117.258 14.4274C117.142 14.4274 117.055 14.3404 117.055 14.2245C117.055 14.1085 117.142 14.0215 117.258 14.0215C117.374 14.0215 117.461 14.1085 117.461 14.2245Z" fill="#28316E"/>
<path d="M117.461 15.768C117.461 15.8839 117.374 15.9709 117.258 15.9709C117.142 15.9709 117.055 15.8839 117.055 15.768C117.055 15.652 117.142 15.565 117.258 15.565C117.374 15.565 117.461 15.652 117.461 15.768Z" fill="#28316E"/>
<path d="M117.461 17.3117C117.461 17.4276 117.374 17.5146 117.258 17.5146C117.142 17.5146 117.055 17.4276 117.055 17.3117C117.055 17.1957 117.142 17.1088 117.258 17.1088C117.374 17.1088 117.461 17.1957 117.461 17.3117Z" fill="#28316E"/>
<path d="M117.461 18.7252C117.461 18.8412 117.374 18.9281 117.258 18.9281C117.142 18.9281 117.055 18.8412 117.055 18.7252C117.055 18.6092 117.142 18.5223 117.258 18.5223C117.374 18.5223 117.461 18.6092 117.461 18.7252Z" fill="#28316E"/>
<path d="M118.196 11.9023C118.196 12.0182 118.109 12.1052 117.993 12.1052C117.877 12.1052 117.79 12.0182 117.79 11.9023C117.79 11.7863 117.877 11.6993 117.993 11.6993C118.109 11.6993 118.196 11.7863 118.196 11.9023Z" fill="#28316E"/>
<path d="M118.196 13.4455C118.196 13.5615 118.109 13.6484 117.993 13.6484C117.877 13.6484 117.79 13.5615 117.79 13.4455C117.79 13.3296 117.877 13.2426 117.993 13.2426C118.109 13.2426 118.196 13.3296 118.196 13.4455Z" fill="#28316E"/>
<path d="M118.196 14.989C118.196 15.105 118.109 15.1919 117.993 15.1919C117.877 15.1919 117.79 15.105 117.79 14.989C117.79 14.873 117.877 14.7861 117.993 14.7861C118.109 14.7861 118.196 14.873 118.196 14.989Z" fill="#28316E"/>
<path d="M118.196 16.5472C118.196 16.6631 118.109 16.7501 117.993 16.7501C117.877 16.7501 117.79 16.6631 117.79 16.5472C117.79 16.4312 117.877 16.3442 117.993 16.3442C118.109 16.3442 118.196 16.4312 118.196 16.5472Z" fill="#28316E"/>
<path d="M118.196 17.9465C118.196 18.0624 118.109 18.1494 117.993 18.1494C117.877 18.1494 117.79 18.0624 117.79 17.9465C117.79 17.8305 117.877 17.7436 117.993 17.7436C118.109 17.7436 118.196 17.8305 118.196 17.9465Z" fill="#28316E"/>
<path d="M118.874 10.9932C118.874 11.0802 118.802 11.1672 118.7 11.1672C118.599 11.1672 118.526 11.0947 118.526 10.9932C118.526 10.8918 118.599 10.8193 118.7 10.8193C118.802 10.8193 118.874 10.8918 118.874 10.9932Z" fill="#28316E"/>
<path d="M118.903 12.551C118.903 12.638 118.83 12.7105 118.743 12.7105C118.656 12.7105 118.584 12.638 118.584 12.551C118.584 12.4641 118.656 12.3916 118.743 12.3916C118.83 12.3916 118.903 12.4641 118.903 12.551Z" fill="#28316E"/>
<path d="M118.903 14.0943C118.903 14.1812 118.83 14.2537 118.743 14.2537C118.656 14.2537 118.584 14.1812 118.584 14.0943C118.584 14.0073 118.656 13.9348 118.743 13.9348C118.83 13.9348 118.903 14.0073 118.903 14.0943Z" fill="#28316E"/>
<path d="M118.903 15.6379C118.903 15.7249 118.83 15.8118 118.729 15.8118C118.627 15.8118 118.555 15.7394 118.555 15.6379C118.555 15.5364 118.627 15.464 118.729 15.464C118.83 15.464 118.903 15.5364 118.903 15.6379Z" fill="#28316E"/>
<path d="M118.903 17.1816C118.903 17.2686 118.83 17.3556 118.729 17.3556C118.627 17.3556 118.555 17.2831 118.555 17.1816C118.555 17.0802 118.627 17.0077 118.729 17.0077C118.83 17.0077 118.903 17.0802 118.903 17.1816Z" fill="#28316E"/>
<path d="M118.903 18.5807C118.903 18.6677 118.83 18.7546 118.729 18.7546C118.627 18.7546 118.555 18.6822 118.555 18.5807C118.555 18.4792 118.627 18.4068 118.729 18.4068C118.83 18.4068 118.903 18.4792 118.903 18.5807Z" fill="#28316E"/>
<path d="M119.609 11.9015C119.609 11.974 119.551 12.032 119.479 12.032C119.406 12.032 119.348 11.974 119.348 11.9015C119.348 11.829 119.406 11.7711 119.479 11.7711C119.551 11.7711 119.609 11.829 119.609 11.9015Z" fill="#28316E"/>
<path d="M119.609 13.445C119.609 13.445 119.551 13.5754 119.479 13.5754C119.406 13.5754 119.348 13.5175 119.348 13.445C119.348 13.3725 119.406 13.3145 119.479 13.3145C119.551 13.3145 119.609 13.3725 119.609 13.445Z" fill="#28316E"/>
<path d="M119.609 14.9889C119.609 15.0614 119.551 15.1194 119.479 15.1194C119.406 15.1194 119.348 15.0614 119.348 14.9889C119.348 14.9165 119.406 14.8585 119.479 14.8585C119.551 14.8585 119.609 14.9165 119.609 14.9889Z" fill="#28316E"/>
<path d="M119.579 16.546C119.579 16.546 119.535 16.647 119.478 16.647C119.42 16.647 119.377 16.6037 119.377 16.546C119.377 16.4883 119.42 16.4451 119.478 16.4451C119.535 16.4451 119.579 16.4883 119.579 16.546Z" fill="#28316E"/>
<path d="M119.579 17.9454C119.579 17.9454 119.535 18.0463 119.478 18.0463C119.42 18.0463 119.377 18.0031 119.377 17.9454C119.377 17.8877 119.42 17.8444 119.478 17.8444C119.535 17.8444 119.579 17.8877 119.579 17.9454Z" fill="#28316E"/>
<path d="M120.286 10.9925C120.286 10.9925 120.243 11.0935 120.185 11.0935C120.127 11.0935 120.084 11.0502 120.084 10.9925C120.084 10.9348 120.127 10.8915 120.185 10.8915C120.243 10.8915 120.286 10.9348 120.286 10.9925Z" fill="#28316E"/>
<path d="M120.214 12.6509C120.27 12.6509 120.315 12.6057 120.315 12.5499C120.315 12.4942 120.27 12.4489 120.214 12.4489C120.158 12.4489 120.113 12.4942 120.113 12.5499C120.113 12.6057 120.158 12.6509 120.214 12.6509Z" fill="#28316E"/>
<path d="M120.315 14.0937C120.315 14.0937 120.271 14.1946 120.214 14.1946C120.156 14.1946 120.113 14.1514 120.113 14.0937C120.113 14.036 120.156 13.9927 120.214 13.9927C120.271 13.9927 120.315 14.036 120.315 14.0937Z" fill="#28316E"/>
<path d="M120.214 15.7384C120.27 15.7384 120.315 15.6932 120.315 15.6374C120.315 15.5816 120.27 15.5364 120.214 15.5364C120.158 15.5364 120.113 15.5816 120.113 15.6374C120.113 15.6932 120.158 15.7384 120.214 15.7384Z" fill="#28316E"/>
<path d="M120.214 17.2816C120.27 17.2816 120.315 17.2364 120.315 17.1806C120.315 17.1248 120.27 17.0796 120.214 17.0796C120.158 17.0796 120.113 17.1248 120.113 17.1806C120.113 17.2364 120.158 17.2816 120.214 17.2816Z" fill="#28316E"/>
<path d="M120.214 18.6812C120.27 18.6812 120.315 18.636 120.315 18.5802C120.315 18.5244 120.27 18.4792 120.214 18.4792C120.158 18.4792 120.113 18.5244 120.113 18.5802C120.113 18.636 120.158 18.6812 120.214 18.6812Z" fill="#28316E"/>
<path d="M112.583 20.6283C112.409 20.6283 112.28 20.4841 112.28 20.3254C112.28 20.1667 112.424 20.0225 112.583 20.0225C112.741 20.0225 112.886 20.1667 112.886 20.3254C112.886 20.4841 112.741 20.6283 112.583 20.6283Z" fill="#28316E"/>
<path d="M111.039 20.6283C110.866 20.6283 110.736 20.4841 110.736 20.3254C110.736 20.1667 110.881 20.0225 111.039 20.0225C111.198 20.0225 111.342 20.1667 111.342 20.3254C111.342 20.4841 111.198 20.6283 111.039 20.6283Z" fill="#28316E"/>
<path d="M109.496 20.6283C109.322 20.6283 109.193 20.4841 109.193 20.3254C109.193 20.1667 109.337 20.0225 109.496 20.0225C109.654 20.0225 109.798 20.1667 109.798 20.3254C109.798 20.4841 109.654 20.6283 109.496 20.6283Z" fill="#28316E"/>
<path d="M107.952 20.6283C107.779 20.6283 107.649 20.4841 107.649 20.3254C107.649 20.1667 107.793 20.0225 107.952 20.0225C108.111 20.0225 108.255 20.1667 108.255 20.3254C108.255 20.4841 108.111 20.6283 107.952 20.6283Z" fill="#28316E"/>
<path d="M106.408 20.6283C106.235 20.6283 106.105 20.4841 106.105 20.3254C106.105 20.1667 106.249 20.0225 106.408 20.0225C106.567 20.0225 106.711 20.1667 106.711 20.3254C106.711 20.4841 106.567 20.6283 106.408 20.6283Z" fill="#28316E"/>
<path d="M104.851 20.6283C104.678 20.6283 104.548 20.4841 104.548 20.3254C104.548 20.1667 104.692 20.0225 104.851 20.0225C105.009 20.0225 105.154 20.1667 105.154 20.3254C105.154 20.4841 105.009 20.6283 104.851 20.6283Z" fill="#28316E"/>
<path d="M111.804 21.3929C111.971 21.3929 112.107 21.2572 112.107 21.0899C112.107 20.9226 111.971 20.787 111.804 20.787C111.636 20.787 111.501 20.9226 111.501 21.0899C111.501 21.2572 111.636 21.3929 111.804 21.3929Z" fill="#28316E"/>
<path d="M110.26 21.3929C110.427 21.3929 110.563 21.2572 110.563 21.0899C110.563 20.9226 110.427 20.787 110.26 20.787C110.093 20.787 109.957 20.9226 109.957 21.0899C109.957 21.2572 110.093 21.3929 110.26 21.3929Z" fill="#28316E"/>
<path d="M108.716 21.3929C108.884 21.3929 109.019 21.2572 109.019 21.0899C109.019 20.9226 108.884 20.787 108.716 20.787C108.549 20.787 108.413 20.9226 108.413 21.0899C108.413 21.2572 108.549 21.3929 108.716 21.3929Z" fill="#28316E"/>
<path d="M107.173 21.3929C107.34 21.3929 107.476 21.2572 107.476 21.0899C107.476 20.9226 107.34 20.787 107.173 20.787C107.006 20.787 106.87 20.9226 106.87 21.0899C106.87 21.2572 107.006 21.3929 107.173 21.3929Z" fill="#28316E"/>
<path d="M105.63 21.3929C105.797 21.3929 105.933 21.2572 105.933 21.0899C105.933 20.9226 105.797 20.787 105.63 20.787C105.463 20.787 105.327 20.9226 105.327 21.0899C105.327 21.2572 105.463 21.3929 105.63 21.3929Z" fill="#28316E"/>
<path d="M112.583 22.0997C112.438 22.0997 112.308 21.9699 112.308 21.8256C112.308 21.6813 112.438 21.5515 112.583 21.5515C112.727 21.5515 112.857 21.6813 112.857 21.8256C112.857 21.9699 112.741 22.0997 112.583 22.0997Z" fill="#28316E"/>
<path d="M111.039 22.0997C110.895 22.0997 110.765 21.9699 110.765 21.8256C110.765 21.6813 110.895 21.5515 111.039 21.5515C111.184 21.5515 111.313 21.6813 111.313 21.8256C111.313 21.9699 111.184 22.0997 111.039 22.0997Z" fill="#28316E"/>
<path d="M109.496 22.0997C109.351 22.0997 109.222 21.9699 109.222 21.8256C109.222 21.6813 109.351 21.5515 109.496 21.5515C109.64 21.5515 109.77 21.6813 109.77 21.8256C109.77 21.9699 109.64 22.0997 109.496 22.0997Z" fill="#28316E"/>
<path d="M107.952 22.0997C108.104 22.0997 108.226 21.977 108.226 21.8256C108.226 21.6742 108.104 21.5515 107.952 21.5515C107.801 21.5515 107.678 21.6742 107.678 21.8256C107.678 21.977 107.801 22.0997 107.952 22.0997Z" fill="#28316E"/>
<path d="M106.408 22.0997C106.264 22.0997 106.134 21.9699 106.134 21.8256C106.134 21.6813 106.264 21.5515 106.408 21.5515C106.552 21.5515 106.682 21.6813 106.682 21.8256C106.682 21.9699 106.552 22.0997 106.408 22.0997Z" fill="#28316E"/>
<path d="M104.851 22.0997C104.706 22.0997 104.577 21.9699 104.577 21.8256C104.577 21.6813 104.706 21.5515 104.851 21.5515C104.995 21.5515 105.125 21.6813 105.125 21.8256C105.125 21.9699 104.995 22.0997 104.851 22.0997Z" fill="#28316E"/>
<path d="M111.803 22.8212C111.674 22.8212 111.558 22.7202 111.558 22.5759C111.558 22.4317 111.659 22.3307 111.803 22.3307C111.948 22.3307 112.049 22.4317 112.049 22.5759C112.049 22.7202 111.948 22.8212 111.803 22.8212Z" fill="#28316E"/>
<path d="M110.261 22.8212C110.131 22.8212 110.015 22.7202 110.015 22.5759C110.015 22.4317 110.116 22.3307 110.261 22.3307C110.405 22.3307 110.506 22.4317 110.506 22.5759C110.506 22.7202 110.405 22.8212 110.261 22.8212Z" fill="#28316E"/>
<path d="M108.717 22.8068C108.844 22.8068 108.947 22.7034 108.947 22.576C108.947 22.4485 108.844 22.3452 108.717 22.3452C108.589 22.3452 108.486 22.4485 108.486 22.576C108.486 22.7034 108.589 22.8068 108.717 22.8068Z" fill="#28316E"/>
<path d="M107.173 22.8212C107.043 22.8212 106.928 22.7202 106.928 22.5759C106.928 22.4317 107.029 22.3307 107.173 22.3307C107.317 22.3307 107.418 22.4317 107.418 22.5759C107.418 22.7202 107.317 22.8212 107.173 22.8212Z" fill="#28316E"/>
<path d="M105.629 22.8212C105.499 22.8212 105.384 22.7202 105.384 22.5759C105.384 22.4317 105.485 22.3307 105.629 22.3307C105.773 22.3307 105.874 22.4317 105.874 22.5759C105.874 22.7202 105.773 22.8212 105.629 22.8212Z" fill="#28316E"/>
<path d="M112.511 23.53C112.395 23.53 112.308 23.443 112.308 23.327C112.308 23.2111 112.395 23.1241 112.511 23.1241C112.627 23.1241 112.714 23.2111 112.714 23.327C112.714 23.443 112.627 23.53 112.511 23.53Z" fill="#28316E"/>
<path d="M110.968 23.5733C110.852 23.5733 110.765 23.4863 110.765 23.3703C110.765 23.2544 110.852 23.1674 110.968 23.1674C111.084 23.1674 111.171 23.2544 111.171 23.3703C111.171 23.4863 111.084 23.5733 110.968 23.5733Z" fill="#28316E"/>
<path d="M109.424 23.5591C109.309 23.5591 109.222 23.4721 109.222 23.3562C109.222 23.2402 109.309 23.1532 109.424 23.1532C109.54 23.1532 109.627 23.2402 109.627 23.3562C109.627 23.4721 109.54 23.5591 109.424 23.5591Z" fill="#28316E"/>
<path d="M107.881 23.5733C107.765 23.5733 107.678 23.4863 107.678 23.3703C107.678 23.2544 107.765 23.1674 107.881 23.1674C107.997 23.1674 108.084 23.2544 108.084 23.3703C108.084 23.4863 107.997 23.5733 107.881 23.5733Z" fill="#28316E"/>
<path d="M106.337 23.5733C106.221 23.5733 106.134 23.4863 106.134 23.3703C106.134 23.2544 106.221 23.1674 106.337 23.1674C106.453 23.1674 106.54 23.2544 106.54 23.3703C106.54 23.4863 106.453 23.5733 106.337 23.5733Z" fill="#28316E"/>
<path d="M104.924 23.5733C104.808 23.5733 104.721 23.4863 104.721 23.3703C104.721 23.2544 104.808 23.1674 104.924 23.1674C105.039 23.1674 105.126 23.2544 105.126 23.3703C105.126 23.4863 105.039 23.5733 104.924 23.5733Z" fill="#28316E"/>
<path d="M111.746 24.3092C111.63 24.3092 111.543 24.2222 111.543 24.1062C111.543 23.9903 111.63 23.9033 111.746 23.9033C111.862 23.9033 111.949 23.9903 111.949 24.1062C111.949 24.2222 111.862 24.3092 111.746 24.3092Z" fill="#28316E"/>
<path d="M110.189 24.2945C110.073 24.2945 109.986 24.2075 109.986 24.0915C109.986 23.9756 110.073 23.8886 110.189 23.8886C110.305 23.8886 110.392 23.9756 110.392 24.0915C110.392 24.2075 110.305 24.2945 110.189 24.2945Z" fill="#28316E"/>
<path d="M108.645 24.3092C108.529 24.3092 108.442 24.2222 108.442 24.1062C108.442 23.9903 108.529 23.9033 108.645 23.9033C108.761 23.9033 108.848 23.9903 108.848 24.1062C108.848 24.2222 108.761 24.3092 108.645 24.3092Z" fill="#28316E"/>
<path d="M107.102 24.3092C106.986 24.3092 106.899 24.2222 106.899 24.1062C106.899 23.9903 106.986 23.9033 107.102 23.9033C107.218 23.9033 107.305 23.9903 107.305 24.1062C107.305 24.2222 107.218 24.3092 107.102 24.3092Z" fill="#28316E"/>
<path d="M105.703 24.3092C105.587 24.3092 105.5 24.2222 105.5 24.1062C105.5 23.9903 105.587 23.9033 105.703 23.9033C105.819 23.9033 105.906 23.9903 105.906 24.1062C105.906 24.2222 105.819 24.3092 105.703 24.3092Z" fill="#28316E"/>
<path d="M112.641 24.9721C112.554 24.9721 112.467 24.8997 112.467 24.7982C112.467 24.6967 112.54 24.6243 112.641 24.6243C112.742 24.6243 112.815 24.6967 112.815 24.7982C112.815 24.8997 112.742 24.9721 112.641 24.9721Z" fill="#28316E"/>
<path d="M111.097 25.0009C111.01 25.0009 110.938 24.9284 110.938 24.8415C110.938 24.7545 111.01 24.682 111.097 24.682C111.184 24.682 111.256 24.7545 111.256 24.8415C111.256 24.9284 111.184 25.0009 111.097 25.0009Z" fill="#28316E"/>
<path d="M109.554 25.0009C109.467 25.0009 109.394 24.9284 109.394 24.8415C109.394 24.7545 109.467 24.682 109.554 24.682C109.641 24.682 109.713 24.7545 109.713 24.8415C109.713 24.9284 109.641 25.0009 109.554 25.0009Z" fill="#28316E"/>
<path d="M108.011 25.0157C107.924 25.0157 107.837 24.9432 107.837 24.8418C107.837 24.7403 107.909 24.6678 108.011 24.6678C108.112 24.6678 108.185 24.7403 108.185 24.8418C108.185 24.9432 108.112 25.0157 108.011 25.0157Z" fill="#28316E"/>
<path d="M106.467 25.0157C106.38 25.0157 106.293 24.9432 106.293 24.8418C106.293 24.7403 106.366 24.6678 106.467 24.6678C106.568 24.6678 106.641 24.7403 106.641 24.8418C106.641 24.9432 106.568 25.0157 106.467 25.0157Z" fill="#28316E"/>
<path d="M105.067 25.0156C104.981 25.0156 104.894 24.9431 104.894 24.8417C104.894 24.7402 104.966 24.6677 105.067 24.6677C105.169 24.6677 105.241 24.7402 105.241 24.8417C105.241 24.9431 105.169 25.0156 105.067 25.0156Z" fill="#28316E"/>
<path d="M111.747 25.7217C111.674 25.7217 111.616 25.6637 111.616 25.5912C111.616 25.5187 111.674 25.4608 111.747 25.4608C111.819 25.4608 111.877 25.5187 111.877 25.5912C111.877 25.6637 111.819 25.7217 111.747 25.7217Z" fill="#28316E"/>
<path d="M110.188 25.7072C110.188 25.7072 110.058 25.6492 110.058 25.5767C110.058 25.5043 110.116 25.4463 110.188 25.4463C110.261 25.4463 110.319 25.5043 110.319 25.5767C110.319 25.6492 110.261 25.7072 110.188 25.7072Z" fill="#28316E"/>
<path d="M108.645 25.7217C108.573 25.7217 108.515 25.6637 108.515 25.5912C108.515 25.5187 108.573 25.4608 108.645 25.4608C108.718 25.4608 108.776 25.5187 108.776 25.5912C108.776 25.6637 108.718 25.7217 108.645 25.7217Z" fill="#28316E"/>
<path d="M107.101 25.6771C107.101 25.6771 107 25.6339 107 25.5762C107 25.5185 107.043 25.4752 107.101 25.4752C107.159 25.4752 107.202 25.5185 107.202 25.5762C107.202 25.6339 107.159 25.6771 107.101 25.6771Z" fill="#28316E"/>
<path d="M105.702 25.6771C105.758 25.6771 105.803 25.6319 105.803 25.5762C105.803 25.5204 105.758 25.4752 105.702 25.4752C105.646 25.4752 105.601 25.5204 105.601 25.5762C105.601 25.6319 105.646 25.6771 105.702 25.6771Z" fill="#28316E"/>
<path d="M112.641 26.3841C112.697 26.3841 112.742 26.3389 112.742 26.2832C112.742 26.2274 112.697 26.1822 112.641 26.1822C112.585 26.1822 112.54 26.2274 112.54 26.2832C112.54 26.3389 112.585 26.3841 112.641 26.3841Z" fill="#28316E"/>
<path d="M111.097 26.4275C111.152 26.4275 111.198 26.3823 111.198 26.3265C111.198 26.2707 111.152 26.2255 111.097 26.2255C111.041 26.2255 110.996 26.2707 110.996 26.3265C110.996 26.3823 111.041 26.4275 111.097 26.4275Z" fill="#28316E"/>
<path d="M109.553 26.4128C109.553 26.4128 109.453 26.3695 109.453 26.3118C109.453 26.2541 109.496 26.2108 109.553 26.2108C109.611 26.2108 109.654 26.2541 109.654 26.3118C109.654 26.3695 109.611 26.4128 109.553 26.4128Z" fill="#28316E"/>
<path d="M108.009 26.4275C108.065 26.4275 108.11 26.3823 108.11 26.3265C108.11 26.2707 108.065 26.2255 108.009 26.2255C107.954 26.2255 107.908 26.2707 107.908 26.3265C107.908 26.3823 107.954 26.4275 108.009 26.4275Z" fill="#28316E"/>
<path d="M106.466 26.4275C106.522 26.4275 106.567 26.3823 106.567 26.3265C106.567 26.2707 106.522 26.2255 106.466 26.2255C106.41 26.2255 106.365 26.2707 106.365 26.3265C106.365 26.3823 106.41 26.4275 106.466 26.4275Z" fill="#28316E"/>
<path d="M105.067 26.4275C105.123 26.4275 105.168 26.3823 105.168 26.3265C105.168 26.2707 105.123 26.2255 105.067 26.2255C105.011 26.2255 104.966 26.2707 104.966 26.3265C104.966 26.3823 105.011 26.4275 105.067 26.4275Z" fill="#28316E"/>
<path d="M88.8094 37.2899C87.8717 37.2899 87.0928 36.5254 87.0928 35.5733V21.4652C75.437 17.931 65.0939 19.8351 61.877 25.2158C61.3577 26.0814 59.9729 28.7933 60.146 32.3853C60.1748 33.0056 60.4489 37.6073 63.5215 40.5501C67.2722 44.1276 74.3118 44.344 80.3705 40.4636C80.9619 41.0983 81.9429 41.9927 83.371 42.6129C86.5446 43.9689 89.5162 42.9447 90.2952 42.6562V37.3044H88.795L88.8094 37.2899ZM79.3174 34.8953C75.7976 37.2755 71.8162 37.3044 69.7966 35.3858C68.9599 34.5924 68.08 33.121 68.1521 31.3466C68.2242 29.4281 69.3638 28.1442 69.6812 27.798C71.6575 25.5909 75.4658 25.1004 79.3174 26.3987V34.8809V34.8953Z" fill="#28316E"/>
<path d="M45.072 36.7558L57.4346 24.5086V20.0655H33.2864V26.3262H45.3461L32.6372 38.4436V42.5548H57.9251V36.7558H45.072Z" fill="#28316E"/>
<path d="M30.718 20.0655H22.3801L15.7155 35.1834L9.74338 20.0655H0.785156L10.7099 43.68C10.5512 43.8964 10.0463 44.3724 10.0319 44.3869C9.42602 44.8773 8.66147 45.1081 7.88249 45.1081H3.74238L2.68932 50.7918H8.50279C8.50279 50.7918 12.9747 50.9649 16.1627 48.6857C18.341 47.1277 19.4806 45.2091 19.9999 44.1705C19.9999 44.1705 19.971 44.1705 19.971 44.1561L30.718 20.0511V20.0655Z" fill="#28316E"/>
<path d="M24.7031 50.5182H28.4105V51.9319H26.1601V52.9128H27.6603V54.2688H26.1601V56.3605H24.7031V50.5182Z" fill="#009A3E"/>
<path d="M32.7087 50.5182H33.9638L35.9545 56.3605H34.5696L34.2234 55.3219H32.4202L32.0884 56.3605H30.718L32.7087 50.5182ZM33.8483 54.0813L33.329 52.4368L32.7953 54.0813H33.8483Z" fill="#009A3E"/>
<path d="M59.0642 50.5182H60.3192L62.3099 56.3605H60.9251L60.5789 55.3219H58.7757L58.4439 56.3605H57.0735L59.0642 50.5182ZM60.2038 54.0813L59.6845 52.4368L59.1508 54.0813H60.2038Z" fill="#009A3E"/>
<path d="M80.0533 50.5182H81.3084L83.2991 56.3605H81.9142L81.568 55.3219H79.7648L79.433 56.3605H78.0626L80.0533 50.5182ZM81.193 54.0813L80.6736 52.4368L80.1399 54.0813H81.193Z" fill="#009A3E"/>
<path d="M39.4454 50.5182H41.7102C42.0853 50.5182 42.3882 50.5759 42.6479 50.6913C42.9076 50.8067 43.1095 50.9654 43.2682 51.1529C43.5567 51.4847 43.6865 51.9463 43.6865 52.5089C43.6865 52.9705 43.6 53.3456 43.4269 53.6485C43.2538 53.937 43.0085 54.1678 42.7056 54.3265L43.8452 56.3605H42.3161L41.3496 54.5862H40.7726V56.3605H39.4454V50.5182ZM41.6525 53.3312C41.8833 53.3312 42.0564 53.2735 42.1719 53.1436C42.3017 53.0138 42.3594 52.8551 42.3594 52.6387C42.3594 52.3935 42.3017 52.2204 42.1719 52.105C42.042 51.9896 41.8689 51.9319 41.6525 51.9319H40.787V53.3312H41.667H41.6525Z" fill="#009A3E"/>
<path d="M47.4656 50.5182H49.1966L50.6103 52.7974L52.024 50.5182H53.7551V56.4182H52.125V53.0282L50.6248 55.3363H50.5959L49.0957 53.0426V56.4182H47.48V50.5182H47.4656Z" fill="#009A3E"/>
<path d="M67.8779 56.5481C67.5172 56.5481 67.171 56.4759 66.8536 56.3173C66.5363 56.1586 66.2622 55.9422 66.0314 55.6681C65.8006 55.394 65.6131 55.0622 65.4688 54.6728C65.3245 54.2977 65.2668 53.8794 65.2668 53.4322C65.2668 52.9706 65.339 52.5666 65.4688 52.1916C65.5986 51.8021 65.7862 51.4703 66.0314 51.1962C66.2622 50.9077 66.5507 50.6913 66.8681 50.5326C67.1999 50.374 67.5461 50.2874 67.9356 50.2874C68.1952 50.2874 68.426 50.3163 68.6424 50.374C68.8588 50.4317 69.0463 50.5182 69.2194 50.6336C69.3925 50.749 69.5512 50.8789 69.6955 51.0375C69.8397 51.1962 69.9695 51.3693 70.0705 51.5424L69.0175 52.5234C68.8732 52.307 68.7145 52.1339 68.5414 52.004C68.3683 51.8742 68.1519 51.8165 67.9067 51.8165C67.7336 51.8165 67.5605 51.8598 67.4162 51.9463C67.272 52.0329 67.1422 52.1483 67.0412 52.2926C66.9402 52.4368 66.8536 52.6099 66.7959 52.7974C66.7382 52.9994 66.7094 53.2014 66.7094 53.4177C66.7094 53.663 66.7382 53.8649 66.7959 54.0669C66.8536 54.2688 66.9402 54.442 67.0412 54.5862C67.1422 54.7305 67.272 54.8459 67.4162 54.9324C67.5605 55.019 67.7192 55.0622 67.9067 55.0622C68.0365 55.0622 68.1519 55.0478 68.2673 55.0045C68.3683 54.9757 68.4693 54.918 68.5703 54.8603C68.6568 54.7882 68.7434 54.716 68.8299 54.6295C68.9165 54.5429 68.9886 54.442 69.0607 54.3265L70.1138 55.2209C69.9984 55.4229 69.8686 55.596 69.7243 55.7691C69.5801 55.9422 69.4214 56.0865 69.2339 56.2019C69.0463 56.3173 68.8444 56.4182 68.628 56.4904C68.3972 56.5625 68.1519 56.5913 67.8779 56.5913V56.5481Z" fill="#009A3E"/>
<path d="M72.9698 50.5468H74.4268V56.5622H72.9698V50.5468Z" fill="#009A3E"/>
<path d="M88.9821 56.5478C88.4628 56.5478 87.9723 56.4613 87.5107 56.3026C87.0491 56.1439 86.6308 55.8987 86.2701 55.5813L87.1645 54.5138C87.7415 54.9754 88.3763 55.2063 89.0398 55.2063C89.2562 55.2063 89.4149 55.1774 89.5303 55.1053C89.6457 55.0331 89.7034 54.9322 89.7034 54.8168C89.7034 54.7446 89.7034 54.6869 89.6601 54.6437C89.6313 54.6004 89.588 54.5571 89.5015 54.5138C89.4293 54.4706 89.3283 54.4273 89.1985 54.384C89.0687 54.3407 88.91 54.2974 88.7081 54.2542C88.4051 54.182 88.1166 54.1099 87.8425 54.0234C87.5829 53.9368 87.3521 53.8214 87.1501 53.6916C86.9481 53.5618 86.8039 53.3886 86.6885 53.1867C86.5731 52.9847 86.5154 52.7395 86.5154 52.4366C86.5154 52.1481 86.5731 51.9028 86.6741 51.672C86.775 51.4412 86.9193 51.2537 87.1212 51.0806C87.3232 50.9219 87.554 50.7921 87.8281 50.6911C88.1022 50.6045 88.4195 50.5612 88.7658 50.5612C89.2562 50.5612 89.7034 50.6334 90.0929 50.7632C90.4824 50.893 90.8286 51.0806 91.146 51.3402L90.3381 52.4798C90.0785 52.2923 89.8044 52.1481 89.5303 52.0471C89.2562 51.9461 88.9821 51.9028 88.7225 51.9028C88.5349 51.9028 88.3907 51.9317 88.2897 52.0038C88.1887 52.0759 88.1455 52.1625 88.1455 52.2635C88.1455 52.35 88.1599 52.4077 88.1887 52.451C88.2176 52.4943 88.2753 52.552 88.3474 52.5808C88.4195 52.6241 88.5205 52.6674 88.6503 52.7106C88.7802 52.7539 88.9389 52.7972 89.1408 52.8405C89.4726 52.9126 89.7755 52.9992 90.0352 53.0857C90.3093 53.1867 90.5257 53.3021 90.7132 53.4319C90.9007 53.5762 91.045 53.7349 91.146 53.9368C91.2469 54.1388 91.2902 54.3696 91.2902 54.6292C91.2902 54.9466 91.2325 55.2063 91.1171 55.4371C91.0017 55.6679 90.843 55.8698 90.6411 56.0285C90.4391 56.1872 90.1939 56.317 89.9054 56.4036C89.6169 56.4901 89.2995 56.5334 88.9389 56.5334L88.9821 56.5478Z" fill="#009A3E"/>
<path d="M97.4215 37.7513C97.8109 37.7513 98.1716 37.8523 98.5466 38.0399C98.9073 38.2418 99.1958 38.5159 99.3977 38.8765C99.5997 39.2372 99.7007 39.6267 99.7007 40.0161C99.7007 40.4056 99.5997 40.7807 99.3977 41.1558C99.1958 41.5164 98.9217 41.8049 98.5611 42.0069C98.2004 42.2088 97.8254 42.3098 97.4215 42.3098C97.0175 42.3098 96.6425 42.2088 96.2818 42.0069C95.9212 41.8049 95.6327 41.5308 95.4307 41.1558C95.2288 40.7807 95.1278 40.4201 95.1278 40.0161C95.1278 39.6122 95.2288 39.2372 95.4307 38.8765C95.6327 38.5159 95.9212 38.2274 96.2818 38.0399C96.6425 37.8379 97.0175 37.7513 97.407 37.7513H97.4215ZM97.4215 38.1264C97.1041 38.1264 96.7867 38.213 96.4838 38.3716C96.1809 38.5303 95.9501 38.7756 95.7769 39.0785C95.6038 39.3814 95.5173 39.6988 95.5173 40.0306C95.5173 40.3624 95.6038 40.6797 95.7625 40.9682C95.9356 41.2712 96.1664 41.502 96.4694 41.6751C96.7723 41.8482 97.0897 41.9347 97.4215 41.9347C97.7532 41.9347 98.0706 41.8482 98.3735 41.6751C98.6765 41.502 98.9073 41.2712 99.0804 40.9682C99.2535 40.6653 99.3256 40.3479 99.3256 40.0306C99.3256 39.7132 99.2391 39.3814 99.066 39.0785C98.8929 38.7756 98.662 38.5447 98.3591 38.3716C98.0562 38.213 97.7388 38.1264 97.4215 38.1264ZM96.4261 41.2856V38.8333H97.2628C97.5513 38.8333 97.7532 38.8621 97.8831 38.9054C98.0129 38.9487 98.1139 39.0352 98.186 39.1362C98.2581 39.2516 98.3014 39.367 98.3014 39.4968C98.3014 39.6699 98.2437 39.8286 98.1139 39.9584C97.9841 40.0883 97.8109 40.1604 97.609 40.1748C97.6955 40.2181 97.7677 40.2614 97.8109 40.3047C97.9119 40.4056 98.0273 40.5643 98.1716 40.7951L98.4745 41.2712H97.9985L97.7821 40.8817C97.609 40.5787 97.4792 40.3912 97.3637 40.3047C97.2916 40.247 97.1907 40.2181 97.0464 40.2181H96.8156V41.2567H96.4261V41.2856ZM96.8156 39.9007H97.2916C97.5224 39.9007 97.6811 39.8719 97.7677 39.7998C97.8542 39.7276 97.8975 39.6411 97.8975 39.5257C97.8975 39.4535 97.8831 39.3958 97.8398 39.3237C97.7965 39.266 97.7388 39.2227 97.6667 39.1939C97.5946 39.165 97.4647 39.1506 97.2628 39.1506H96.8156V39.8863V39.9007Z" fill="#293274"/>
</svg>
